<?xml version="1.0" encoding="utf-8"?>
<!-- Generator: Adobe Illustrator 24.0.1, SVG Export Plug-In . SVG Version: 6.00 Build 0)  -->
<svg version="1.1" id="Layer_1" xmlns="http://www.w3.org/2000/svg" xmlns:xlink="http://www.w3.org/1999/xlink" x="0px" y="0px"
	 viewBox="0 0 342.1 288" style="enable-background:new 0 0 342.1 288;" xml:space="preserve">
<style type="text/css">
	.st0{fill:#FFFFFF;}
	.st1{fill:#FEFEFE;}
	.st2{fill:#CEECF9;}
	.st3{fill:#CB2D07;}
	.st4{fill:#B22E18;}
	.st5{fill:#2A85BE;}
	.st6{fill:#238AC6;}
	.st7{fill:#9A2A13;}
	.st8{fill:#A0331D;}
	.st9{fill:#BB2D14;}
	.st10{fill:#2383B9;}
	.st11{fill:#9B2E1A;}
	.st12{fill:#2592DF;}
	.st13{fill:#952D16;}
	.st14{fill:#953117;}
	.st15{fill:#2C78B0;}
	.st16{fill:#1883C1;}
	.st17{fill:#A82D18;}
	.st18{fill:#A22E1A;}
	.st19{fill:#D8472F;}
	.st20{fill:#3183B6;}
	.st21{fill:#9C2E1C;}
	.st22{fill:#A02A16;}
	.st23{fill:#299FE8;}
	.st24{fill:#267EA6;}
	.st25{fill:#A73222;}
	.st26{fill:#8B2708;}
	.st27{fill:#408FBD;}
	.st28{fill:#AD422C;}
	.st29{fill:#9D3F1E;}
	.st30{fill:#9F301E;}
	.st31{fill:#7A7880;}
	.st32{fill:#D94A2E;}
	.st33{fill:#C92D08;}
	.st34{fill:#C8A689;}
	.st35{fill:#9A2B17;}
	.st36{fill:#C3290D;}
	.st37{fill:#209BEA;}
	.st38{fill:#0993EE;}
	.st39{fill:#CD2B07;}
	.st40{fill:#D9482A;}
	.st41{fill:#0C93EC;}
	.st42{fill:#95E5F3;}
	.st43{fill:#982D19;}
	.st44{fill:#A33627;}
	.st45{fill:#E74426;}
	.st46{fill:#DD492E;}
	.st47{fill:#E05034;}
	.st48{fill:#9F3317;}
	.st49{fill:#A53F27;}
	.st50{fill:#9F3722;}
	.st51{fill:#A73A29;}
	.st52{fill:#942615;}
	.st53{fill:#8F250E;}
	.st54{fill:#1E7CB2;}
	.st55{fill:#1590E7;}
</style>
<ellipse class="st0" cx="171.6" cy="144" rx="156.3" ry="144"/>
<g>
	<g>
		<path class="st1" d="M162.5,288c-49,0-98.1,0-147.2,0c0-96,0-191.9,0-288c94.2,0,188.5,0,282.9,0c0,95.9,0,192,0,288
			c-39.9,0-79.9,0-119.9,0c-0.4-0.4-0.6-1-0.6-1.6c0.4-3,3.1-3.3,4.5-5c3.5-4.5,6.1-9.4,4.2-15.8c-0.5-1.5-0.9-3-1.8-4.3
			c-0.3-0.4-0.6-0.8-0.9-1.2c-0.4-0.3-0.7-0.7-1.1-1c-2.5-1.8-4.3-4.4-7-5.9c-7.2-5.1-14.5-1.9-21.7,0c-0.5-0.1-1.1-0.3-1.6-0.6
			c-0.2-0.2-0.5-0.3-0.7-0.5c-0.5-0.3-0.9-0.7-1.3-1.1c-10-7.3-19.6-15.2-29.1-23.3c-10-9.6-20-19-29-29.7c-3.6-4.3-7-8.8-10.4-13.3
			c-0.6-0.9-1.2-1.9-1.8-2.9c-0.3-0.5-0.6-0.9-0.9-1.4c-3.6-5.1-6.9-10.4-9.6-16.1c-1.9-5.5-3.8-11-6.4-16.2
			c-0.4-1.1-0.6-2.2-0.7-3.4c-0.1-1.1-0.3-2.2-0.6-3.3c-0.2-0.8-0.4-1.6-0.5-2.5c-0.2-1.2-0.6-2.3-0.8-3.4c-0.2-0.6-0.3-1.2-0.3-1.9
			c-0.1-1-0.1-2-0.1-3c0-5.6-0.2-11.2,0.1-16.8c3.5-20.9,14.6-34.6,32.2-41.6c6.9-2.7,14.2-3.3,21.5-2.8c2.6,0.7,3.5,2.9,4,5.5
			c1.4,7.2,3.6,14.1,5.8,21c5.3,18.9,15.1,33.9,31.2,42.4c5.3,2.8,7.5,6.2,7,12.5c-0.2,3.1-0.4,6.3,0.6,9.4c0.7,3,0.1,6.2,1.2,9.1
			c0.3,1.1,0.5,2.3,0.9,3.4c0.5,1.8,0.6,3.8,1.4,5.6c0.3,0.7,0.6,1.5,0.9,2.2c0.7,1.6,1.2,3.4,1.6,5.1c0.1,0.5,0.3,0.9,0.4,1.4
			c0.1,0.2,0.2,0.4,0.3,0.6c0.3,0.6,0.6,1.2,1,1.9c0.3,0.6,0.7,1.2,1,1.8c0.4,0.6,0.8,1.2,1.1,1.8c0.3,0.4,0.5,0.8,0.8,1.3
			c0.4,0.6,0.9,1.3,1.4,1.9c4.8,7.1,10.7,12.6,17.5,17c7.2,5.1,14.8,8.8,23.6,7.6c0.8,0,1.7,0,2.5,0c3.4,0.3,6.6-0.4,9.7-1.8
			c11.7-2.5,20.6-10.5,29.4-18.8c5.2-4.9,9-11.3,13.8-16.6c1.3-1,2.3-2.3,3-3.9c2.8-5.1,6-9.9,8.2-15.4
			c14.9-24.3,19.2-59.8-2.5-83.5c-11.1-12.1-22.8-22.6-38.5-25.9c-1.1-0.1-2.2-0.2-3.3-0.5c-1.3-0.4-2.6-0.9-3.9-1.3
			c-0.5-0.1-1.1-0.3-1.6-0.5c-3.6-0.8-7.4,0.4-11-0.9c-4-2.6-1.7-7.8-3.8-11.2c-0.5-1.3-0.8-2.8-1.3-4.1c-0.2-0.5-0.5-1-0.7-1.4
			c-0.6-0.9-1.3-1.7-1.9-2.5c-9-10.7-18.4-20.7-31.2-25.4c-2.6,3.1-3.7,5.8-2.8,9.2c3,4.7,7.4,4.6,11.8,4.5
			c9.2,0.1,15.6,5.2,18.8,14.9c0.9,2.8,1.4,5.7,2.3,8.5c0.4,1.2,0.6,2.5,1,3.7c0.2,0.6,0.3,1.2,0.4,1.9c0.2,1.9,0.2,3.8-0.3,5.7
			c-0.3,0.9-0.8,1.6-1.7,1.9c-1.7,0-2.6-1.9-4.2-2.2c-10.9,1.2-20.4,6.4-29.5,12.9c-4.3,2.2-7.3,6.3-11.2,9.1
			c-1.1,0.4-2.3,0.3-3.4-0.2c-10.7-10.1-22.5-17.6-36.3-20.9c-1.5-0.4-2.9-1.1-3.7-2.6c-0.9-17.4,11.2-32.3,26.4-32.6
			c2.2,0,4.6,0.4,6.4-1.5c0.4-6.8-0.7-8.4-8.3-12.3c-9.9,6.5-20,13.1-27,24.4c-2.5,6.5-5.2,13-4.6,20.5c0.2,2.4-0.7,4.6-3.4,4.8
			c-0.6,0-1.2-0.2-1.7-0.6c-1.3-1.7-2.8-2.4-4.9-2.4c-12.9,0-24.7,3.8-35.7,11.5c-13.5,9.4-21,23.3-24.8,39.9
			c-1.9,8.4-2.2,17.2-0.2,25.7c1.5,6.1,2.5,12.4,4.8,18.2c2.3,9.3,7.5,16.8,12.1,24.7c1.4,2.4,2.7,5,4.6,7.1
			c16.4,23.1,36.6,41.3,57.7,58.5c7.4,6.1,15.1,11.5,22.7,17.2c1.1,1.5,1.6,3.2,1.6,5.2c-1.1,10.2,3.8,16.2,11.2,20.6
			c1,0.5,1.8,1.2,2.5,2.2c0.3,0.5,0.4,1.1,0.5,1.7C163.1,287,162.9,287.6,162.5,288z"/>
		<path class="st2" d="M178.1,286.4c0.1,0.5,0.1,1.1,0.2,1.6c-5.3,0-10.6,0-15.9,0c0-0.5,0.1-0.9,0.1-1.4
			C167.7,283.8,172.9,284.1,178.1,286.4z"/>
		<path class="st3" d="M164,76.2c0.9-0.1,1.9-0.1,2.8-0.2c4.4-1.6,7.1-6.2,11.2-8.3c8.1-4.3,15.9-9.5,24.7-12.1
			c2.2-0.7,4.3-1.5,6.5-0.1c3.1,9.1,1.5,12.5-6.3,16.2c-9,4.3-17.6,9.6-24.2,18.1c-3,3.9-6.3,6.6-11.3,5c-1.5-0.5-3,0.3-4.5,0.3
			c-3.6-0.6-6.1-3.1-8.4-5.9c-6.3-7.5-13.6-13-22.2-16.6c-3.9-1.6-7.2-4.4-8.7-9.2c-0.6-2.6-1.6-5.3,0.9-8.5
			c7.3,1.4,14.4,4.7,21.4,8.6C152.2,67.3,157.8,72.3,164,76.2z"/>
		<path class="st4" d="M161.3,160.5c-2.1-5.3-0.4-10.8-1.2-17.1c-11.6-5.1-22.2-12.9-29-25.7c-3.5-6.6-9-12.5-8.6-21.2
			c2.4-6,5.7-3.6,8.9-1.1c3.7,2.9,6,7,7.8,11.5c1.4,3.7,3.5,7,5.2,10.6c6.7,14.5,25.8,17.1,36.6,8.3c2.3-1.9,4.3-5.1,7.9-3.4
			c1.2,5-2,7.3-4.9,9.6c-7.4,6.3-16,5.1-24.4,4.5c-0.7,0-1.5-0.3-2.3-0.3c4.1,1.3,5.6,4.6,5.7,9.1
			C162.4,150.4,164.5,155.8,161.3,160.5z"/>
		<path class="st5" d="M119.9,30.5c7-12,17.8-18.5,28.3-25.4c6.9,2.4,10.3,7.6,11.1,17.2c-20.1-1.8-32.8,7.8-35.1,31.2
			c-2,5.1-1.3,9.9,1,14.6c0.6,1.1,1,2.4,1.3,3.7c0.2,1.7,0.4,3.5,0.1,5.2c-0.3,1.5-0.6,2.8-2.4,3.4c-4.6-5.1-5.6-11.7-5.4-18.7
			c0.7-11.3,2.6-22,8.6-31.6c4.7-7.4,11-10.4,18.4-11.6c1.5-0.2,3,0.1,4.2-1.3c1-1.4,1.5-2.8,0.2-4.4c-2.2-1.5-4.1-0.8-5.7,1.2
			c-1.1,1.4-1,3.6-2.6,5.1c-4.7,1.2-9.4,2.9-13.4,6.6c-0.7,0.8-1.5,1.6-2.1,2.5c-0.3,0.5-0.7,0.9-1,1.3
			C123.8,31.3,122.1,32.7,119.9,30.5z"/>
		<path class="st6" d="M120.3,60.7c-0.1,6.5,0.8,12.7,4.5,18.5c0.1-1.2,0.3-2.1,0.4-3.1c4,3.9,6.8,15.2,5,19.9
			c-2.7-1.9-5.3-1.7-7.7,0.6c-2.8-8.7-5.5-17.3-8.3-26c-2.3-4.5-2.8-9.2-0.9-14.1c2.4-8.6,1.3-18.3,6.6-26c2.2,0.5,3.8-0.8,5.3-2.5
			c1.6,2.1,0.6,3.9-0.3,5.8C120.8,42.3,119.7,51.3,120.3,60.7z"/>
		<path class="st7" d="M49.3,150.3c-9.3-23.6-9.5-47,4-68.6c13.3-21.4,32.7-30,55.6-29.3c2.2,0.1,3.1,1,2.9,3.4
			c-0.3,0.6-0.8,1-1.3,1.3c-2.7,1.1-5.6,0.6-8.4,0.7C80,58.7,63.4,70.2,53.3,92c-6.6,14.3-7.3,30.1-3.5,45.9c1,3.9,3.4,7.8,1.2,12.1
			C50.5,150.4,49.9,150.5,49.3,150.3z"/>
		<path class="st8" d="M240.7,53.5c34,7.8,59.3,42.4,55,75.7c-1.7,13.3-5.1,26.1-12.9,36.8c-0.9-0.6-1.3-1.5-1.5-2.6
			c-0.2-3.3,0.9-6.3,2.3-9c6.6-12.9,8.2-26.9,7.5-41.5c-0.1-1.7-0.4-3.4-1.2-4.8c-3-16.6-13.5-27-24.4-36.7
			c-6.8-6-14.4-10.7-22.5-14.3C241.8,56.2,240.3,55.6,240.7,53.5z"/>
		<path class="st9" d="M146.3,257.5c-7.3-5.6-14.7-11.1-22-16.7c-0.5-2.7-2.8-3.2-4.3-4.7c-1.1-1.1-2.7-1.7-2.1-3.9
			c1.7-1.5,1.5-4,2.7-5.8c0.5-0.1,1-0.1,1.4,0.3c9.7,7.7,19.4,15.4,29.1,23.1c0.4,0.4,0.8,0.8,1,1.4l0-0.1
			C151.9,255.2,151,258.6,146.3,257.5z"/>
		<path class="st10" d="M177.4,17.7c-0.6-5,1.5-8.7,4.3-13c13.1,6.9,24.6,15.4,33.2,28.3c-1.3,2.4-0.1,4.9-0.2,7.4
			c0,3.2,2,7.3-2.3,9.3c-0.2-0.4-0.3-0.8-0.2-1.2c-0.5-0.7-0.5-1.6-0.7-2.5c-2.6-8.9-5.2-17.7-14.1-23.2c-1.5,0-4.1,0-6.7,0
			c-1.1-1.8-0.4-2.7,1.3-3.2c-1.4,0.3-2.4,0.1-3-1.3c-0.1-4-1.6-6.2-5.2-6c-2.2,1.5-0.5,4.7-2.6,6C180,18.3,178.6,18.8,177.4,17.7z"
			/>
		<path class="st11" d="M110.3,56c0.5-0.1,1-0.1,1.5-0.2c0.5,0.2,1,0.4,1.5,0.7c0.3,4.7,0.6,9.4,0.9,14.1
			C98.9,71.7,84.1,74.2,73,88.2c-5.8,7.4-9.6,15.9-11.4,25.5c-1.4,5.7,0.2,11.7-0.9,17.5c-0.7,0.4-1.3,0.3-1.8-0.2
			c-2.3-6.1-0.7-12.5-1.1-18.8c3.3-22.9,16-36.3,34.9-43.3c2.8-1.1,6-0.6,8.8-1.7c2.4-0.4,5,0.1,7.1-1.9c0.7-0.7,1-1.7,1.1-2.7
			C110,60.4,108.9,58.1,110.3,56z"/>
		<path class="st12" d="M212.5,49.6c2.1-4.9,1-9.7-0.8-15c1.1-0.6,2.2-1.1,3.2-1.7c0.5,0.5,1.1,1,1.6,1.5c0,0.5-0.6,1.1,0.3,1.3
			c0.5,1.1,1,2.2,1.4,3.3c0,0.3-0.1,0.5-0.1,0.8c-0.2,1.2,0.1,2.2,0.6,3.2c0.2,0.6,0.3,1.1,0.3,1.7c0,2.1,0.1,4.2,0.8,6.2
			c-0.5,11.5,1.3,23.2-2.7,34.3c-0.9,2.6-0.2,5,0.3,7.4c0,2.2-0.6,4-2.7,4.6c-2.2-0.5-4.3-1.3-7-3.7c3.6-12,4-25,5.2-37.9
			C212.8,53.6,212.6,51.6,212.5,49.6z"/>
		<path class="st13" d="M282.3,163c0.2,1,0.3,2,0.5,3c-2.7,5-5.4,10-8.1,15c-1,1-1.4,2.7-2.5,3.6c-10.3,14.3-21.6,27.2-37.2,34.1
			c-2,0.9-4.2,1.3-6.4,2c-1.6,0.6-2-0.5-2.1-2c0.2-1.2,0.9-1.8,1.8-2.2c17.7-7.4,30.9-20.9,41.7-37.9c2.7-4.3,5.3-8.7,8.1-12.9
			C279.1,164.1,280.3,162.6,282.3,163z"/>
		<path class="st14" d="M118.4,231.9c2.6,2.7,5.1,5.4,7.9,8.4c-0.6,0.2-1.3,0.3-2,0.5c-21.5-16.8-41.6-35.3-58.1-58.5
			c-0.8-1.3-0.6-2.3,0.6-3.1c3.3-0.1,4.9,2.6,6.7,5.1c8.3,11.8,18.3,21.7,28.3,31.6C107.2,221.3,113.5,225.7,118.4,231.9z"/>
		<path class="st15" d="M153.5,252.5c7.8-4.4,15.6-5.9,23.5-0.2c-2.4,3.5-5.6,1.9-8.6,1.8c-8.1,0.3-12.4,3.7-15,12.2
			c0.7,7.2,6.3,9.3,10.5,13c0.1,2.8-2.7,2.9-3.6,4.7c-10-4.4-14.7-13-11.8-22.2C148.7,257.7,150.7,254.8,153.5,252.5z"/>
		<path class="st16" d="M160.2,284c-1.3-4.3,1.8-3.3,3.6-3.8c1.8-2.1,4.4-2,6.6-2.9c4.4-1.9,7.3-5.6,7.5-10.7
			c0.2-4.5-1.9-8.4-6.2-10.1c-1.7-0.7-3.6-1.3-3.8-4c3-0.1,6.1-0.1,9.1-0.2c2.4,2.3,4.7,4.5,7.1,6.8c0.5,0,0.7,0.3,0.7,0.8l0.3,0.3
			c0.8,13.5-4.7,21.2-16.7,23c1.6,0.4,2.7-0.5,3.9-0.3c1.3,0.2,3.3-0.1,2.4,2.7c-4.2,0.5-8.4,0.8-12.5-0.1
			C161.5,285,160.8,284.5,160.2,284z"/>
		<path class="st17" d="M161.3,160.5c0.1-5.5,0.1-11,0.2-16.6c0.6-0.4,1.2-0.4,1.8,0c0.8,0.6,1.3,1.5,1.6,2.6
			c0.9,8.2,0,16.5,1.6,24.5c0.1,1.2,0.2,2.3,0.6,3.4c0.5,1.2,1,2.5,1.3,3.8c0.2,0.7,0.4,1.5,0.7,2.2c0.2,0.5,0.4,1,0.6,1.4
			c0.3,0.7,0.7,1.5,1,2.2c4,8.9,9.3,16.5,16.9,21.9c2.1,1.9,4.3,3.7,3.8,7.3c-0.2,0.2-0.3,0.5-0.5,0.7c-7.5-4.1-13.8-9.8-18.1-18
			c-0.4-0.2-0.6-0.6-0.8-1.1c-0.2-0.4-0.3-0.8-0.5-1.2c-0.2-0.6-0.7-1-1-1.4c-0.4-0.7-0.8-1.5-1.3-2.2c-0.1-0.7-0.5-1.1-0.7-1.7
			l-0.2-0.4c-0.1-0.2-0.3-0.4-0.4-0.7c-0.7-2.1-1.4-4.1-2.1-6.2c-0.1-0.5-0.3-1.1-0.6-1.6c-1.6-1.7-1.8-3.9-1.6-6.2
			c-0.4-0.9-0.3-1.9-0.8-2.7C160.6,167.6,161.6,164,161.3,160.5z"/>
		<path class="st18" d="M122,226.7c-0.5,0.1-1,0.2-1.5,0.3c-2.4,1.9-4.3,0.3-6-1.4c-11.3-11.1-23.1-21.6-32.2-35.2
			c-1.9-2.8-5.4-5.1-3.8-9.8c0.8-0.5,1.6-0.4,2.3,0.3l0,0c0.7,0.6,0.5,2,1.5,2.4C94.3,199.4,108.1,213,122,226.7z"/>
		<path class="st19" d="M162.6,94.2c2.8-2.2,5.8-0.9,9.6,0.1c9.7-12.4,22-21.6,36.7-27.2c0-3.9,0-7.5,0-11c-0.6-0.9-0.6-1.7,0.3-2.4
			c0.9,1.2,1.7,2.3,2.6,3.5c1.4,5.4,1.2,10.5-2.3,15c-11.9,3.6-21.7,10.7-29.9,21.1c-3.3,4.2-11.7,5.5-16.2,3
			C162.6,95.9,162.3,95.1,162.6,94.2z"/>
		<path class="st20" d="M209,71.3c1.8-4.5,2.7-9.2,2.7-14.1c0.4-0.5,0.9-1,1.3-1.6c0.6-0.6,1.2-1.2,2.9-3c-3.8,14.2-1,28-6.8,39.6
			c1.4,3.1,5.2,0.6,5.5,4.3c0.7,1.4,0,2.3-0.7,3.2c-0.9,0.7-2,0.9-3.1,0.9c-0.5-0.1-1-0.2-1.5-0.4c-0.5-0.3-0.9-0.7-1.2-1.1
			c-1.1-2-2.7-3.6-3.5-5.8c-0.9-4.5,1.5-8.1,2.4-12.1c0.6-2.5,0.8-5,1-7.5C208,72.7,208.4,71.9,209,71.3z"/>
		<path class="st21" d="M124,68.7c-1.9-5.1-4-10.2,0.2-15.2c14.6,4.6,28.9,10,39.8,22.7c-8.9-2.1-15.1-10.1-23.3-13.6
			c-5.3-2.2-10.5-4.6-16.9-7.3c0.6,4,1,6.2,1.3,8.4C123.8,65.1,125.7,67.4,124,68.7z"/>
		<path class="st20" d="M216.4,92.9c-0.5-1.8-1.9-3.9-1.4-5.2c4.9-12.3,2-25.6,4.1-38.2c-1.2-1.9,0.3-4.4-1.1-6.3l0,0
			c-0.8-1.2-0.7-2.4-0.1-3.6c0.1-0.2,0.2-0.4,0.3-0.6c1,4.1,2,8.1,3,12.2c0.4,0.5,0.6,1,0.6,1.6c-0.1,4.3-0.4,8.5,0.2,12.8
			c0.1,0.6,0.1,1.3,0.1,1.9c0.8,6.8-0.7,13.2-2.4,19.6C219.3,89.3,218.9,92,216.4,92.9z"/>
		<path class="st22" d="M209.1,53.7c-0.1,0.8-0.2,1.6-0.3,2.4c-8,0.6-15,4.4-21.8,8.6c-3.1,1.9-6,4.3-9.8,4.1
			c-0.3-0.3-0.4-0.7-0.4-1c0.1-0.4,0.2-0.5,0.3-0.5C186.8,59.6,197.1,54.2,209.1,53.7z"/>
		<path class="st23" d="M174.9,284.1c-2.6,0-5.2,0-9.9,0c7.4-2.5,12.6-4.8,15.9-9.6c1.4-5,2.8-9.6,4.1-14.2c0.7,1.1,1.4,2.2,2.1,3.4
			c1,8.7-1.3,15.7-8.5,19.9C177.5,284.3,176.2,284.5,174.9,284.1z"/>
		<path class="st17" d="M227.1,218c0.5,0.9,1,1.8,1.5,2.7c-3.3,2.4-7,2.2-10.7,2c-0.8-0.4-1.5-0.4-2.2,0.1c-9.4,1-17.6-2.2-24.9-8.7
			l0.2-0.2c2.1-2,4.8-2.1,6.7-0.4c3.3,2.9,7.2,3.7,10.9,5.2c0.5,0.5,0.6,1.1,0.5,2c0.7,0.3,0.8-1.3,1.6-1.3c1.2-0.6,2.5-0.7,3.9-0.7
			c1.6-0.1,3.2,0,4.7,0.4c1-0.1,1.9,1.8,3,0.2c0.9-1.4,2.2-1.9,3.6-2C226.3,217.3,226.8,217.6,227.1,218z"/>
		<path class="st24" d="M174.9,284.1c8.4-3.6,11.5-11.2,12.3-20.5c4.1,11.2-1.5,17.5-9.1,22.7c-5.2,0.1-10.4,0.2-15.6,0.3
			c-0.2-0.3-0.4-0.7-0.4-1.1C166.4,284.6,170.9,287,174.9,284.1z"/>
		<path class="st25" d="M67.3,179.6c-0.4,0.9-0.8,1.8-1.1,2.7c-6.6-10.1-13.7-19.7-16.9-32.1c0.4,0,0.7,0,1.1,0
			c0.2,0.1,0.5,0.2,0.7,0.3c0.7,0.4,1.3,1,1.9,1.7C59.1,160.5,63.1,170.1,67.3,179.6z"/>
		<path class="st26" d="M221.4,65.6c-2-4.5-2-9,0.2-13.4c3.9-1.1,7.9-1.2,11.8,0l0.3-0.1l0.1,0.3c1,0.7,2.3,0,3.2,0.8
			c1.2,0.1,2.4,0.2,3.6,0.3c0.7,0.8,1.5,1.7,2.2,2.5c-3,2.9-6.3,1.7-9.6,0.7c-2.7-0.8-5.4-2.1-8-0.2
			C222.7,58.9,226.8,64.8,221.4,65.6z"/>
		<path class="st27" d="M177.4,17.7c1.5,0,2.9,0,4.4,0.1c2.7-2.4,5.3-2.5,7.9,0.1c1.2,0.6,2.3,1.1,3.2,1.6c-0.7,1.1-1.4,2.2-2,3.3
			c-2.4,0-4.9,0-7.3,0C181.5,21.1,179.5,19.4,177.4,17.7z"/>
		<path class="st28" d="M64.1,147.6c3.5,4.9,4.9,10.9,6.8,16.6c-0.2,0.2-0.5,0.3-0.7,0.5c-6.2-2.2-7.4-8.1-8.3-14.2
			C62.3,149.2,62.9,148.1,64.1,147.6z"/>
		<path class="st29" d="M80.9,180.9c-0.8,0-1.6,0.1-2.4,0.1c-0.8,0.7-1.8,0.7-2.6,0.1c-3.2-2.2-6.2-11.7-5.4-16.5
			c0,0,0.3-0.4,0.3-0.4C74.3,169.8,77.6,175.3,80.9,180.9z"/>
		<path class="st30" d="M177.1,67.2c0,0.5,0.1,1,0.1,1.6c-3.3,2.7-4.9,8.5-10.4,7.2C169.7,72.3,172.8,68.8,177.1,67.2z"/>
		<path class="st11" d="M64.1,147.6c-0.4,0.9-0.8,1.8-1.3,2.7c-2,0.4-2-1.5-2.5-2.8c-0.2-1.2-0.4-2.3-0.7-3.4
			c-0.1-0.6-0.3-1.1-0.3-1.7c-0.2-1.8-0.4-3.5-0.7-5.2c0-1,0.2-1.8,0.8-2.5c0.8-0.4,1.6-0.4,2.3,0.4c0.3,0.3,0.3,0.6,0.2,1
			c0.4,0.9,0.3,1.9,0.7,2.8c0.1,0.9,0.2,1.8,0.2,2.7c0.6,0.7,0.5,1.6,0.9,2.4C63.9,145.1,64,146.3,64.1,147.6z"/>
		<path class="st31" d="M153.5,252.5c-1.7,3.1-3.5,6.2-5.2,9.3c-0.7-1.4-1.4-2.9-2.1-4.3c3.2-0.6,4.1-4.1,5.9-6.4
			C152.6,251.6,153.1,252.1,153.5,252.5z"/>
		<path class="st32" d="M60.3,131c0.8-5.7-1.4-11.8,1.3-17.3c-0.1,6.2-0.3,12.4-0.4,18.6C60.5,132.3,60,132,60.3,131z"/>
		<path class="st33" d="M233.5,52.3c-3.9,0-7.9,0-11.8,0c-0.2-0.3-0.3-0.7-0.4-1.1C225.4,51.3,229.6,50.2,233.5,52.3z"/>
		<path class="st28" d="M60.3,131c0.3,0.4,0.6,0.8,0.9,1.3c0.1,0.9,0.3,1.8,0.4,2.7c-0.7,0-1.4,0-2.2,0.1c-1-1.3-1-2.6,0-3.9
			C59.8,131.2,60.1,131.1,60.3,131z"/>
		<path class="st34" d="M272.2,184.6c0.8-1.2,1.7-2.4,2.5-3.6C274.7,182.9,274.1,184.3,272.2,184.6z"/>
		<path class="st10" d="M216.8,35.7c-0.2,0.5-0.3,1-0.5,1.5c-0.2-0.1-0.4-0.2-0.6-0.2c0.3-0.8,0.5-1.7,0.8-2.5
			C216.6,34.8,216.7,35.3,216.8,35.7z"/>
		<path class="st33" d="M237.1,53.2c-1.1-0.3-2.2-0.5-3.2-0.8C235,52.7,236,52.9,237.1,53.2z"/>
		<path class="st12" d="M211.6,45.9c0.2,0.8,0.5,1.7,0.7,2.5C212,47.6,211.8,46.7,211.6,45.9z"/>
		<path class="st28" d="M62.6,138.8c-0.2-0.9-0.5-1.9-0.7-2.8C62.1,136.9,62.4,137.9,62.6,138.8z"/>
		<path class="st4" d="M162.7,170.8c0.3,0.9,0.6,1.8,0.8,2.7C163.2,172.6,163,171.7,162.7,170.8z"/>
		<path class="st29" d="M82.4,183.3c-0.5-0.8-1-1.6-1.5-2.4C81.4,181.7,81.9,182.5,82.4,183.3z"/>
		<path class="st28" d="M63.7,143.9c-0.3-0.8-0.6-1.6-0.9-2.4C63.1,142.3,63.4,143.1,63.7,143.9z"/>
		<path class="st13" d="M215.8,222.8c0.7-1.1,1.4-1.1,2.2-0.1C217.2,222.7,216.5,222.8,215.8,222.8z"/>
		<path class="st4" d="M165.2,179.8c0.2,0.5,0.4,1,0.6,1.6C165.5,180.8,165.3,180.3,165.2,179.8z"/>
		<path class="st31" d="M152.2,251.2c-0.3-0.5-0.7-0.9-1-1.4C151.5,250.3,151.8,250.7,152.2,251.2z"/>
		<path class="st4" d="M168.4,188.6c0.2,0.6,0.5,1.1,0.7,1.7C168.9,189.7,168.7,189.1,168.4,188.6z"/>
		<path class="st4" d="M170.4,192.4c0.3,0.5,0.7,0.9,1,1.4C171.1,193.4,170.8,192.9,170.4,192.4z"/>
		<path class="st4" d="M171.9,195c0.3,0.4,0.5,0.7,0.8,1.1C172.4,195.7,172.2,195.4,171.9,195z"/>
		<path class="st23" d="M184.8,260c-0.4-0.1-0.6-0.4-0.7-0.8C184.3,259.4,184.6,259.7,184.8,260z"/>
		<path class="st4" d="M167.8,187.5c0.2,0.2,0.3,0.4,0.4,0.7c0,0-0.5-0.2-0.5-0.2L167.8,187.5z"/>
		<path class="st35" d="M124,68.7c0.4-1.7,0.7-3.4,1.1-5.1c3.5,8.1,11.7,7.8,17.2,12.4c6.9,5.9,13.6,12.1,20.4,18.2
			c7,2.3,12.7,2.2,18.3-5c7.3-9.4,16.6-16.3,28.1-17.9c0,0.6,0,1.3,0,1.9c-0.4,2.9-2.8,3.2-4.6,4.1c-7.7,4.1-14.7,9.3-20.7,16.4
			c-7.6,9.1-19.9,9.5-28.3,1.1c-7.8-7.8-15.5-15.6-25.8-18.8c-2.4-0.8-3.4-3.2-4.8-5.1C124.6,70.1,124.3,69.4,124,68.7z"/>
		<path class="st1" d="M124.9,70.8c11.5,6.3,23,11.9,32.2,23c7,8.5,18.3,7.1,25.2-1.4c7.5-9.1,16.9-14.5,26.8-19.2
			c2,7.8-3.6,13.8-3.9,21c-4.4,9.2-8.8,18.5-14.6,26.8c-0.6,0.7-1.3,1.1-2.2,1c-10.4,9.8-21.5,14.8-35,7.7
			c-7.2-3.8-10.7-10.9-14-18.1c-2.6-5.6-5-11.2-9.2-15.6c-1.7-6.6-3.3-13.3-5-19.9C125.1,74.4,125,72.6,124.9,70.8z"/>
		<path class="st36" d="M188.4,122c0.3-0.4,0.7-0.8,1-1.2c4-3.6,6.7-8.2,8.6-13.6c2.7-7.3,6.1-9.6,11.1-8.1l-0.1,0.1
			c1.3,4.6-1.5,7.9-3.2,11.5c-1.7,3.5-3.8,6.7-5.3,10.4c-6.5,10.1-15.8,15.7-25.7,20.4c-1.3,2.2-3,3.4-5.3,3.8
			c-2.5,9-0.6,17.7,0.9,26.5c0,0.1,0.2,0.3,0.2,0.3c0.2-0.1,0.3-0.2,0.5-0.3c2.6,0.6,2.9,3.1,3.4,5.2c2,9.6,6.8,17.4,11.9,25.2
			c0.7,1,1.3,2.1,1.4,3.4c-0.1,0.3-0.2,0.6-0.3,0.9c-9.8-3.9-14.3-13.1-18.2-23c-0.3-0.4-0.7-0.8-1-1.3c0-0.4,0-0.8-0.1-1.3
			c-0.4-0.4-0.7-0.8-1.1-1.3c-0.4-1.3-0.8-2.6-1.2-3.9c-0.7-0.6-0.5-1.8-1.1-2.5c-0.4-9.3-0.8-18.7-1.2-28c-0.3-0.4-0.7-0.8-1.1-1.2
			c-0.3,0-0.7,0-1,0c0.5-7.8-8.7-4.5-10-10.7c11.1,2.1,21.8,4.6,31.8-2.8C186.2,128.4,188.3,126,188.4,122z"/>
		<path class="st37" d="M120.3,60.7c-2.5-8.4,0-16.6,1.2-25.5c1.1-1.9,4.1-3.5,3.6-7.3c0,0,0-0.1,0-0.1c0.9-0.7,1.7-1.5,2.2-2.6
			c3.6-5.3,9.1-6,14.2-7.9c0.5-1.4,1.1-3.1,1.6-4.8c2,3,5.6,2.7,8,5c0.4,1.4,0.5,2.2-1.3,2.5c-19.4,3.8-27.7,14.4-29.4,37.3
			C120.5,58.6,120.4,59.7,120.3,60.7z"/>
		<path class="st38" d="M151.2,17.7c-2.2,0-4.5,0-7.2,0c-0.3-1.9-0.5-3.5-0.8-5c2.1-3.3,5-3,8.4-2.2
			C152.7,12.9,155.6,15.4,151.2,17.7z"/>
		<path class="st6" d="M127.4,25.4c0,1.6-0.8,2.5-2.2,2.6C125.9,27.1,126.6,26.2,127.4,25.4z"/>
		<path class="st39" d="M59.5,131.2c0,1.3,0,2.6,0,3.9c0,0.8,0,1.6,0,2.4c-0.1,1.8-0.1,3.6,1,5.1c0,0.4,0.1,0.9,0.1,1.3
			c0.7,0.7,0.4,1.9,1.1,2.5c0.4,1.3,0.7,2.6,1.1,3.8c1.3,5.7,3.5,10.7,7.8,14.3c2.2,5.7,2.2,12.8,8,16.4
			c8.4,15.5,20.3,27.3,32.6,38.5c2.9,2.7,4.8,7.4,9.4,7.4c0.4,1.5,0.8,3.1,1.1,4.4c-1,2.4-2.2,0.8-3.3,0.6
			c-11.8-8.3-22.4-18.4-32-29.8c-6.3-7.5-12.7-15-19.1-22.5c-5.3-8.9-10.5-17.9-15.8-26.8c-0.7-0.7-0.4-1.9-1.1-2.5c0,0,0,0,0,0
			c-1.2-7.1-2.5-14.2-3.5-21.3c-4.5-31.8,11.8-60.6,39-70.6c8.2-3,16.3-2,24.4-2.4c0.4,2.5,0.8,5.1,1.2,7.6c-0.6,0.6-0.4,1.8-1,2.4
			c-2.1,3.2-5.1,2.7-8,2.6C86.9,68.3,75.4,76.6,66.1,90c-7.3,10.6-8.9,23-9,34.8c-0.4-3.4,0.6-7.8,0.7-12.2c0-1.1,0.3-2.1,1.6-1.8
			C59.4,117.6,59.5,124.4,59.5,131.2z"/>
		<path class="st33" d="M221.4,65.6c3-3.3-0.4-7.7,2.1-11.6c6.3-3.4,12.6,3.9,19.4,2c13.3,4,24.3,12.6,33.3,23.6
			c6.2,7.7,15,14.5,14.2,27.2c2.8,8.9,2.1,18.1,0.1,26.7c-5.8,26.1-19.4,47.1-36.5,65.5c-8.2,8.8-17.5,14.9-28.2,18.8
			c-1.1,0.9-2.3,1.7-3.4,2.6c-0.7,0.7-1.4,0.7-2.2,0.1c-1.9,0-3.8-0.1-5.7-0.1c-1.7-1.7-2.7-3.6-1.7-6.2c1.2-1.9,3.5-2.1,5-3.6
			c15-2.3,25.5-12.4,34.5-25.2c7.1-7.5,12.2-16.5,16.3-26.3c2.1-5,4.5-9.7,6.5-14.7c3-3.2,2.7-7.6,3.4-11.6
			c2.4-10.2,0.2-20.2-1.3-30.1c-0.8-5.7-4-10.3-8.4-13.6c-0.4-0.5-0.7-1-1-1.6c-1.4-6.5-6-9.3-10.7-12c-10.6-6-21.8-8.6-33.6-7.7
			c-0.9-0.2-1.7-0.6-2.4-1.4C221.3,66.2,221.4,65.9,221.4,65.6z"/>
		<path class="st40" d="M225.9,217.9c30.5-15.2,48.9-42.8,61.6-76.2c4.2-11.2,3.3-23,3-34.7c4.5,8.9,2.3,18.2,1.4,27.4
			c-1.1,10.4-6.5,19.1-9.6,28.7c-6.4,9.5-12.2,19.7-19.4,28.4c-9.9,12-20.7,23.1-35.8,26.6C226.7,217.9,226.3,217.9,225.9,217.9z"/>
		<path class="st41" d="M189.7,17.9c-2.6,0-5.2-0.1-7.9-0.1c-0.4-2.2-0.8-4.3-1.2-6.5c4.8-2.8,7.8,0.2,11.1,3.2
			C191,15.7,190.3,16.8,189.7,17.9z"/>
		<path class="st32" d="M59.4,110.8c-2.8,7.5,0.3,15.7-1.8,23.9c-4.2-10.9,0.7-36.3,8.8-47.5C75,75.2,86.1,68.6,99.7,67
			c1.6-0.2,2.5-0.3,2.8,1.7c-18.6,2.7-32.8,12.7-40.6,32.5C60.7,104.2,60.2,107.5,59.4,110.8z"/>
		<path class="st7" d="M110.5,66.1c0.3-0.8,0.7-1.6,1-2.4C111.1,64.5,110.8,65.3,110.5,66.1z"/>
		<path class="st1" d="M221.1,66.5c0.8-0.1,1.6-0.1,2.4-0.2c1.5,2.1,3.7,1.9,5.7,1.8c9.8-0.7,18.9,2.5,27.6,7.1
			c5.2,2.7,9.6,6.6,12,12.7l0,0c10.4,10.9,12.2,24.7,10.6,39.6c-0.2,1.7-0.2,3.3-0.3,5c0,0.7,0,1.3-0.1,2c-1.1,2.6-1.3,5.5-2.1,8.2
			c-0.2,0.6-0.4,1.1-0.8,1.6c-3.2,5.6-5.3,11.8-8.2,17.6c-4.7,9.6-10.4,18.3-17.1,26.2c-11.4,14.3-24.6,24.5-42.7,24
			c-4.4-0.1-8.5-1.6-12.6-3c-10.1-4.8-15-14.6-19.1-25.2c-1.7-4.4-2.5-9.2-4.7-13.3c-0.6-1.6-0.6-3.2-0.7-4.9
			c-0.5-6.5-2.1-12.9-0.3-20.1c7.4-5.2,17.2-5.8,24.2-13.2c6.9-7.3,11.5-16.1,15.8-25.3c0.3-0.8,0.8-1.7,1-2.5
			c0.2-1.8,0.4-3.7,1.6-5.1c0.5-1,0.9-1.9,1.4-2.9c0.6-1.2,1.2-2.4,1.7-3.7C219.5,84.5,220.8,75.6,221.1,66.5z"/>
		<path class="st10" d="M218,43.2c1.8,1.8,0.9,4.2,1.1,6.3C218.7,47.4,218.4,45.3,218,43.2z"/>
		<path class="st10" d="M217.9,39.6c0,1.2,0.1,2.4,0.1,3.6C216.7,42,216.4,40.8,217.9,39.6z"/>
		<path class="st42" d="M167.9,252.5c5.7,2.5,11,5.5,12.2,14.1c-1.8,9.2-7.7,13.4-16.3,13.6c-6.2-2.9-13.1-6.6-11.8-15
			C153.3,256.6,159.9,252.5,167.9,252.5z"/>
		<path class="st36" d="M213.5,214.1c0.4,2.1,0.8,4.2,1.1,6.3c-1.5,0-3,0-4.6,0c-0.4,0.5-0.7,0.5-1.1,0c-6.6-0.1-11.1-7.3-17.9-6.6
			c-1.2-2.5-2.4-4.9-3.6-7.4c0,0,0,0,0,0c3-2.6,4.6,0.9,6.7,2c0.4,0.3,0.9,0.5,1.3,0.7c0.9,0.4,1.8,0.7,2.8,0.9
			c0.9,0.3,2,0.3,2.9,0.8c0.9,0.6,1.5,1.5,2.1,2.3c1.7,2.3,3.1-0.3,4.6-0.4C209.9,212.3,211.9,212,213.5,214.1z"/>
		<path class="st4" d="M164.8,173.2c0.4,0.8,0.8,1.7,1.1,2.5C165.6,174.9,165.2,174.1,164.8,173.2z"/>
		<path class="st4" d="M162.5,144c0.4,0.4,0.7,0.8,1.1,1.2C163.2,144.8,162.9,144.4,162.5,144z"/>
		<path class="st4" d="M168.2,182.2c0.3,0.4,0.7,0.9,1,1.3C168.9,183,168.6,182.6,168.2,182.2z"/>
		<path class="st4" d="M167.1,179.6c0.4,0.4,0.7,0.9,1.1,1.3C167.8,180.5,167.5,180.1,167.1,179.6z"/>
		<path class="st43" d="M212.8,106.2c-8.5,19.8-19.6,36.1-40.7,38.8c-2.1,7.3,0.3,13.9,0.3,20.5c-1.7,0.1-3-0.5-4-2.1
			c-0.3-1.2-0.3-2.4-0.1-3.6c0.8-4.7,0.4-9.5,0.3-14.2c0-0.7,0.3-1.2,0.8-1.7c1-0.4,2-0.8,3.1-1.3c0-0.8,0.1-1.6,0.1-2.5
			c10.4-1.2,18.3-7.5,25.2-15.7c1.5-1.6,3.2-3.1,3.4-5.7c3.3-6.3,6.8-12.4,9-19.3c1,0,2,0,3,0C213.1,101.7,213,104,212.8,106.2
			C212.8,106.3,212.8,106.2,212.8,106.2z"/>
		<path class="st44" d="M209.1,99.1c-5.5,0.3-8.6,3.9-10.4,9.5c-1.8,5.2-3.4,10.8-9.2,12.2c6-8.3,8.6-19.1,15.7-26.6
			C207.7,94.6,209,96.1,209.1,99.1z"/>
		<path class="st45" d="M210.2,99.5c0,8.1-4.9,13.8-8.1,20.3c-0.4,0.6-0.8,1.3-1.6,1.6c-0.2-0.1-0.4-0.2-0.7-0.3
			c1.1-8.3,7.5-13.8,9.1-21.8C209.4,99.3,209.8,99.4,210.2,99.5z"/>
		<path class="st13" d="M208.9,220.4c0.4,0,0.7,0,1.1,0c-0.6,0.4-1.3,0.9-1.9,1.3c-0.1-0.2-0.3-0.5-0.4-0.7
			C208.1,220.9,208.5,220.6,208.9,220.4z"/>
		<path class="st13" d="M220.3,220.5c0.7,0,1.5-0.1,2.2-0.1c-0.1,0.4-0.3,0.8-0.4,1.2C221.5,221.3,220.9,220.9,220.3,220.5z"/>
		<path class="st7" d="M50.4,150.3c0.4,0.8,0.8,1.7,1.1,2.5C51.1,152,50.8,151.2,50.4,150.3z"/>
		<path class="st32" d="M60.5,142.6c-1.9-1.3-3-2.8-1-5.1C59.8,139.2,60.2,140.9,60.5,142.6z"/>
		<path class="st28" d="M61.7,146.5c-0.4-0.8-0.7-1.7-1.1-2.5C61,144.8,61.4,145.6,61.7,146.5z"/>
		<path class="st17" d="M194.2,210.2c-2.3-1.2-3.7-4.5-6.8-3.8c-8.4-9.8-12.2-22.4-16.9-34.4c-0.5-0.5-0.5-1.1,0-1.6
			c0.9-0.4,1.7-0.3,2.4,0.3c4.6,11.2,7,23.8,16.4,31.9c2,1.8,4.2,3.3,6.3,5C195.7,208.8,194.9,209.5,194.2,210.2z"/>
		<path class="st46" d="M198.8,124.8c-6.7,9.4-14.6,16.3-26.1,15.5c10.7-3.5,19.1-11.1,27.2-19.3c0,0,0,0,0,0
			C201.1,122.8,199.9,123.8,198.8,124.8z"/>
		<path class="st47" d="M170.6,170.6c0,0.4-0.1,0.9-0.1,1.3c-5.7-9.4-2.8-19.8-3.5-32.1c1.6,2.7,2.1,3.4,2.5,4.1c0,0.4,0,0.9,0,1.3
			c0.7,5,0.7,10.1,0,15.1c0,1.3,0,2.6-0.1,3.9C171.6,166,172,168.1,170.6,170.6z"/>
		<path class="st48" d="M194.2,210.2c0.5-0.9,0.9-1.8,1.4-2.7c20.5,8.6,36.4-1.1,50.9-16.2c1.4-1.4,2.7-2.8,4.1-4.2
			c0.8-0.4,1.3-2,2.6-1.1c-8.5,14.1-19.1,24.5-35.1,25.6c-5.7,1.6-11.4,2.2-17.1,0c-1.1,0-2.2-0.1-3.3-0.1c-0.6-0.8-1.7-0.5-2.3-1.3
			C195,210.3,194.6,210.2,194.2,210.2z"/>
		<path class="st49" d="M268.9,87.9c-10.6-14.2-24.7-18.2-40.3-17.9c-2.6,0.1-5.1,0.5-4.9-3.7c15.3-1.9,28.9,3.1,41.4,12.6
			C267.9,81.1,269.3,83.9,268.9,87.9z"/>
		<path class="st50" d="M253.2,186c-0.9,0.4-1.7,0.7-2.6,1.1c9.9-13.3,18-28,25.1-43.4c0.3,0.3,0.4,0.6,0.4,0.9
			c0,0.3-0.1,0.5-0.2,0.5C270.2,160.1,265,175.4,253.2,186z"/>
		<path class="st51" d="M278,133.8c3-16.8-0.1-32.1-9.2-45.8c8.4,3.9,14.6,22.6,12.3,37.1c-0.5,2.9-0.6,5.8-0.9,8.8
			C279.5,134.5,278.8,134.5,278,133.8z"/>
		<path class="st17" d="M200.9,211.6c5.7,0,11.4,0,17.1,0c-0.5,3.1-2.8,2.2-4.6,2.5c-2.3,0-4.5,0-6.8,0c-1.5,1.3-3,1.3-4.5-0.1
			C201.7,213.2,201.3,212.4,200.9,211.6z"/>
		<path class="st52" d="M278,133.8c0.7,0,1.5,0,2.2,0c-1.8,3.6,0.6,9.3-4.3,11.4c-0.1-0.5-0.2-0.9-0.2-1.4c-0.1-0.4-0.1-0.8,0.2-1.1
			c1.1-2.5,1.6-5.3,2-8C277.7,134.3,277.8,134,278,133.8z"/>
		<path class="st53" d="M170.6,170.6c-0.4-2.1-0.8-4.2-1.2-6.3c0.5-0.2,1.1-0.4,1.5-0.5c0.6,0.7,1.2,1.2,1.7,1.8
			c0.1,1.7,0.3,3.4,0.4,5C172.1,170.6,171.3,170.6,170.6,170.6z"/>
		<path class="st51" d="M277.9,134.6c0.5,3.1,0,5.8-2,8C276.5,140,277.2,137.3,277.9,134.6z"/>
		<path class="st20" d="M212.8,106.2C212.8,106.2,212.8,106.3,212.8,106.2C212.8,106.3,212.8,106.2,212.8,106.2z"/>
		<path class="st54" d="M156.2,261.5c4.8-5.5,10.4-7.1,16.6-3c4.1,2.7,4.8,7.4,3,11.7c-2.7,6.4-8.3,7.2-13.7,5.7
			C156,274.2,154.7,268.9,156.2,261.5z"/>
		<path class="st33" d="M202.1,214c1.5,0,3,0,4.5,0.1C205.1,217.8,203.6,217.7,202.1,214z"/>
		<path class="st17" d="M195.3,210.3c0.8,0.4,1.5,0.8,2.3,1.3C196.8,211.1,196.1,210.7,195.3,210.3z"/>
		<path class="st53" d="M169.4,160.4c0-5,0-10.1,0-15.1C171,150.3,171,155.4,169.4,160.4z"/>
		<path class="st36" d="M198.8,124.8c0.4-1.3,0.7-2.5,1.1-3.8c0.7-0.4,1.5-0.8,2.2-1.3C201.7,122,201.4,124.3,198.8,124.8z"/>
		<path class="st55" d="M171.4,259.8c1.9,3,3.7,5.1,3.5,8.7c-3.6,5.7-9,4.9-14,3.4c-3.2-1-3.6-5-2.5-8
			C161,256.7,166.8,261.1,171.4,259.8z"/>
	</g>
</g>
</svg>
