<?xml version="1.0" encoding="utf-8"?>
<!-- Generator: Adobe Illustrator 24.0.1, SVG Export Plug-In . SVG Version: 6.00 Build 0)  -->
<svg version="1.1" id="Layer_1" xmlns="http://www.w3.org/2000/svg" xmlns:xlink="http://www.w3.org/1999/xlink" x="0px" y="0px"
	 viewBox="0 0 560 203.6" style="enable-background:new 0 0 560 203.6;" xml:space="preserve">
<style type="text/css">
	.st0{display:none;fill:#FEFEFE;}
	.st1{fill:#CDECF9;}
	.st2{fill:#CE2C06;}
	.st3{fill:#CA2E06;}
	.st4{fill:#1398AA;}
	.st5{fill:#0DA1BF;}
	.st6{fill:#1F96A2;}
	.st7{fill:#2987BE;}
	.st8{fill:#09A1BB;}
	.st9{fill:#9A2B13;}
	.st10{fill:#9D331D;}
	.st11{fill:#96301F;}
	.st12{fill:#09A2BD;}
	.st13{fill:#9A2C16;}
	.st14{fill:#1F87C1;}
	.st15{fill:#1B95A1;}
	.st16{fill:#156691;}
	.st17{fill:#28939D;}
	.st18{fill:#1A829C;}
	.st19{fill:#2195A1;}
	.st20{fill:#A72A3A;}
	.st21{fill:#269CAA;}
	.st22{fill:#2F75AA;}
	.st23{fill:#2099A8;}
	.st24{fill:#14638E;}
	.st25{fill:#3F97A2;}
	.st26{fill:#38A0AE;}
	.st27{fill:#3C9AA4;}
	.st28{fill:#41979F;}
	.st29{fill:#1983C0;}
	.st30{fill:#2596A6;}
	.st31{fill:#149EB9;}
	.st32{fill:#2F96A2;}
	.st33{fill:#D8472F;}
	.st34{fill:#1A6284;}
	.st35{fill:#982D1E;}
	.st36{fill:#0BA2BD;}
	.st37{fill:#1B94A6;}
	.st38{fill:#A2414C;}
	.st39{fill:#26A0AD;}
	.st40{fill:#AD2C37;}
	.st41{fill:#943019;}
	.st42{fill:#A12B17;}
	.st43{fill:#2595A6;}
	.st44{fill:#368B99;}
	.st45{fill:#9F2917;}
	.st46{fill:#2FA0AC;}
	.st47{fill:#2B9BAC;}
	.st48{fill:#1F9AA2;}
	.st49{fill:#2A7EB6;}
	.st50{fill:#2997A3;}
	.st51{fill:#9E3518;}
	.st52{fill:#4D8B8D;}
	.st53{fill:#2F88AF;}
	.st54{fill:#A3311B;}
	.st55{fill:#378493;}
	.st56{fill:#2696A6;}
	.st57{fill:#ADF6FB;}
	.st58{fill:#388994;}
	.st59{fill:#1588A6;}
	.st60{fill:#9A2F1D;}
	.st61{fill:#8E3442;}
	.st62{fill:#107184;}
	.st63{fill:#148DA3;}
	.st64{fill:#954839;}
	.st65{fill:#287FA6;}
	.st66{fill:#AD2F17;}
	.st67{fill:#2099EB;}
	.st68{fill:#2893A2;}
	.st69{fill:#1E939F;}
	.st70{fill:#BE2B40;}
	.st71{fill:#459C9C;}
	.st72{fill:#2598A4;}
	.st73{fill:#488B90;}
	.st74{fill:#B21F39;}
	.st75{fill:#B02C42;}
	.st76{fill:#1596A2;}
	.st77{fill:#9D3A26;}
	.st78{fill:#8A6C6E;}
	.st79{fill:#318684;}
	.st80{fill:#B94937;}
	.st81{fill:#982B18;}
	.st82{fill:#92E9ED;}
	.st83{fill:#60A9B3;}
	.st84{fill:#199AAF;}
	.st85{fill:#519AA1;}
	.st86{fill:#77B1C8;}
	.st87{fill:#ACDDEB;}
	.st88{fill:#995E60;}
	.st89{fill:#B7E1E3;}
	.st90{fill:#9EE7EA;}
	.st91{fill:#0675BC;}
	.st92{fill:#DA4A2E;}
	.st93{fill:#0AA4C1;}
	.st94{display:none;fill:#EDF8F9;}
	.st95{fill:#0AA0C4;}
	.st96{fill:#9EE2E9;}
	.st97{fill:#11939E;}
	.st98{fill:#0CA3C2;}
	.st99{fill:#2584BC;}
	.st100{fill:#1F9EF5;}
	.st101{fill:#0C93ED;}
	.st102{fill:#C82B0A;}
	.st103{fill:#AAEAEF;}
	.st104{fill:#CC2D05;}
	.st105{fill:#D44829;}
	.st106{fill:#41A2E4;}
	.st107{fill:#1B99ED;}
	.st108{fill:#238ECC;}
	.st109{fill:#2E94D1;}
	.st110{fill:#05A7C2;}
	.st111{fill:#0477B9;}
	.st112{fill:#0594CC;}
	.st113{fill:#0AA5BE;}
	.st114{fill:#D9182D;}
	.st115{fill:#0BA5BC;}
	.st116{fill:#94E4F3;}
	.st117{display:none;fill:#FCFDFE;}
	.st118{fill:#0BA1BC;}
	.st119{fill:#AA3E31;}
	.st120{fill:#279FE9;}
	.st121{fill:#07A3BC;}
	.st122{display:none;fill:#F8FCFD;}
	.st123{fill:#0875B3;}
	.st124{fill:#C3290D;}
	.st125{fill:#D84B2A;}
	.st126{fill:#0993EE;}
	.st127{fill:#0796D1;}
	.st128{fill:#A73627;}
	.st129{fill:#932D19;}
	.st130{fill:#9D3318;}
	.st131{fill:#9A331C;}
	.st132{fill:#A85235;}
	.st133{fill:#8E220C;}
	.st134{fill:#912615;}
	.st135{fill:#8A5C63;}
	.st136{fill:#9E362C;}
	.st137{fill:#1D7CB1;}
	.st138{fill:#E0462B;}
	.st139{fill:#E25135;}
	.st140{fill:#1491E7;}
</style>
<g>
	<g>
		<path class="st0" d="M558.4,3.3c0-2.7-0.5-3.3-2.9-3.3C370.7,0.1,186,0.1,1.2,0c-2.4,0-2.9,0.5-2.9,3.3c0.1,65.7,0.1,131.4,0,197
			c0,2.7,0.5,3.3,2.9,3.3c27.9-0.1,55.7-0.1,83.6-0.1c0.3-0.3,0.4-0.7,0.5-1.1c0-0.4-0.1-0.8-0.4-1.2c-0.9-1.1-2.2-1.5-3.2-2.3
			c-4.4-3.1-7.2-7.3-6.5-13.6c0.1-1.3-0.2-2.7-1-3.7c-0.5-0.6-1.1-1.1-1.7-1.6c-0.5-0.3-0.9-0.7-1.4-1c-4-2.5-7.7-5.5-11.3-8.7
			c-0.3-0.2-0.6-0.5-1-0.6c-15-12.3-29.5-25.2-41.1-41.8c-5.1-7.3-9.9-14.9-12.4-24c-3-9.8-5.3-19.6-3.2-30.1
			c5-24,22.5-36.7,42.2-37.1c1.4,0,3-0.2,4.1,1.2c0.9,0.7,1.8,1.2,2.9,0.6c1.1-1.4,0.7-3.1,0.8-4.7c0.5-9.3,3.9-16.8,11.3-21.4
			c1.1-0.7,2.1-1.2,2.9-2.3c1.6-3,4.4-4.2,6.9-5.8c2.6-1.6,4.4,0.3,6,2c1.4,1.6,2.6,4,1.8,6.1c-0.9,2.3-3.3,0.9-5,1.2
			c-0.1,0-0.1,0-0.2,0c0,0-0.1,0-0.2,0c-4.1-0.5-7.5,1-10.5,4.1c-3,3.1-5.4,6.6-6.6,11.1c0,2.9-1.5,5.7-0.3,8.7
			c2.7,1.8,5.9,1.9,8.7,3.4c7.2,2.5,13.1,7.5,18.9,12.6c0.8,0.3,1.6,0.3,2.4-0.1c1-0.5,1.6-1.5,2.5-2.3c7.8-6.9,16.2-12,26.2-13.3
			c1.2,0.2,1.9,2.3,3.5,1.4c0.2-0.4,0.4-0.7,0.5-1.2c0.2-0.9,0.2-1.8,0.2-2.7c-0.4-3.9-1.5-7.7-2.9-11.3
			c-2.6-6.7-6.5-11.4-13.8-10.5c-1.8,0.2-3.7,0-5.4-1.1c-2.4-1.6-2.9-3.7-1.7-6.5c1.3-3.1,3.2-1.9,5-0.9c6,3.2,10.9,8.1,15.7,13.1
			c2.2,2.2,3.6,5.2,5.2,8c1.7,2.9,0.5,6.7,2.9,9.2c3.7,1.4,7.8-0.3,11.3,1.9c9.7,0.9,17.6,6.3,24.9,13.1
			c14,13.1,19.4,29.3,13.9,49.5c-0.8,3.1-2.8,5.9-2.3,9.4c0.1,0.4,0.4,0.8,0.7,1.1c2.8,1.4,5.8,0.7,8.7,0.8c4.6,0.2,4.9,0.6,2.9,6.6
			c-1.8-5.2-5.7-5.2-9.4-5.8c-3.3-0.6-5.8,0.3-6.9,4.2c-0.8,2.7-1.4,5.5-2.2,8.2c-1.6,5.4-0.2,7.1,4.6,6.2c2.5-0.5,4.8-1.2,7-4.4
			c-0.8,4.1-1.6,7.1-2.3,10.5c-2.6-5.9-7.8-6.8-11.8-2.5c-0.2,0.4-0.4,0.8-0.5,1.2c-1.6,4.4-2,9.1-2.7,13.8c0.1,1,0.5,1.9,1.2,2.5
			c6.6,3.2,11.9-0.4,17.2-4.1c0.9-0.8,1.2-2.3,2.5-2.7c-0.3,1.4-0.9,2.4-1.6,3.5c-1.1,2.1-1.8,5-4.6,4.9c-8.5-0.1-17,0.6-25.5-0.4
			c0.4-2,2.3-2.4,3.3-3.9c0.9-3.3,3.2-6.4,1.2-10.2c-2-0.1-2.9,1.7-4.2,3c-5.9,5.9-12.3,11-20.1,12.9c-1.3,0.4-2.6,1.1-4,1.2
			c-2,0.1-4.1,0.1-6.1,0.1c-6,0.7-11-2.2-15.8-5.7c-3.3-2.4-6.5-4.7-9.1-8c-6.9-8.4-10.3-18.5-11.4-29.7c-0.7-2.9-0.4-6-0.4-8.9
			c0-2.7-0.9-4.6-3.2-5.5c-5.8-2.5-10.5-6.7-14.6-12c-3.3-4-5.3-8.9-7.7-13.6c-1.3-1.7-1.7-3.8-1.8-6c-1.9-5.9-2.8-12.2-5.3-17.9
			c-4.3-1.8-8.6,0.8-12.9,0.3C20.6,53.3,8.5,73.7,13,95.3c0.5,2.6,1,5.3,1.6,7.9c2.5,4.8,3.7,10.4,6.3,15.1
			c4.8,8.2,9.9,16.1,16.2,22.9c5.6,6.9,12.2,12.6,18.3,18.8c0.3,0.3,0.6,0.5,0.9,0.7c7.1,6.3,14.6,11.8,21.8,17.9
			c0.9,0.2,1.9,0.2,2.7-0.3c4.6-2.9,9.1-2.1,13.6,0.3c2.6,2,4.9,4.3,6.7,7.3c1.9,3.5,1.2,6.7-0.4,10.2c-1.2,2.7-4.3,3.2-5.1,6.1
			c0,0.4,0.2,0.8,0.4,1.2c153,0,306,0,459.1,0c2.2,0,3.3,0.1,3.3-3.2C558.3,134.6,558.3,68.9,558.4,3.3z M271,79
			c-12.5-4.3-25.3-7.4-38.5-8.2c-6.4-0.4-6.4-10.4,0-10c14.1,0.9,27.8,4,41.2,8.6C279.7,71.4,277.1,81.1,271,79z M296.8,86.1
			c-6.4,0-6.4-10,0-10C303.3,76.1,303.3,86.1,296.8,86.1z M367.5,45.3c-33.4-12.9-73.9-8.9-106.4,4.9c-5.9,2.5-11-6.1-5-8.6
			c34.9-14.7,78.1-19.8,114.2-5.9C376.1,37.9,373.5,47.6,367.5,45.3z M487,73.6c-34.2-5.6-70.7-6-101.5-23.5
			c-5.6-3.2-0.6-11.8,5-8.6c29.9,17,66,17,99.1,22.5C496,65,493.3,74.6,487,73.6z"/>
		<path class="st1" d="M95.9,202.3c0.1,0.4,0.1,0.8,0.2,1.2c-3.7,0-7.5,0-11.2,0c0-0.3,0-0.7,0.1-1
			C88.5,200.6,92.2,200.8,95.9,202.3z"/>
		<path class="st2" d="M71.9,180.7c-0.5,0.1-0.7-0.2-0.8-0.7c-3.3-4.1-7.8-6.4-12-9.1l0,0c-5.6-6-12.2-10.7-18-16.4
			c-7.6-7.4-14.8-15.4-21.5-24c-5-6.4-8.6-13.7-12.6-20.8c-1-1.8-1.7-3.7-2.2-5.8C2.4,94.8,0.5,85.7,2.1,76
			c2.2-13.4,7.7-24.2,18.2-31.3c7.4-5.1,15.2-8.4,24.1-7.7c2,0.2,4,0.3,5,2.9c0.3,1,0.3,2,0.1,3.1c-1.2,5.4-1.2,5.4-6.6,5.1
			c-3.4-1.3-6.6-0.4-10,0.9C23.7,52.8,17,59.8,13.1,69.8C10.7,76.1,10,83,10.4,88.3c-0.1-2.1,0.2-5.8,0.5-9.5c0.1-1,0-2.4,1.5-1.3
			c1,4-0.4,8,0.1,12.1c0.6,5.5,1.8,10.9,2.4,16.5c1.9,4,4.6,7.5,6,11.9c3.7,8.9,9.5,15.8,15.7,22.4c5.3,8.1,12.2,14,19.6,19.4
			l-0.1-0.1c1.2,1.9,2.6,3.4,4.4,4.5c4.7,3.1,8.3,7.8,12.9,11.2C75.8,177.4,75.3,178.9,71.9,180.7z"/>
		<path class="st3" d="M85.9,52.6c0.7,0,1.3-0.1,2-0.1c4.5-3,8.7-6.4,13.4-9c4.4-2.5,8.9-4.3,13.6-6c1-0.4,2.1-0.3,3,0.6
			c1.9,6.6,0.8,8.7-4.4,11.2c-5.4,2.6-10.9,5.2-14.8,10.4c-3.8,5-7.9,7.8-13.8,6.4c-2.2-0.8-4.1-2.1-5.7-4
			c-4.6-5.6-10.2-9.4-16.4-12.2c-2.5-1.1-4.7-2.9-5.4-6.2c-0.4-1.7-1.1-3.7,0.4-5.1c1.7-1.5,3.5-1,5,0.6c7.7,2.5,14.6,6.9,20.9,12.4
			C84.3,52.1,85.1,52.3,85.9,52.6z"/>
		<path class="st4" d="M384.7,132.5c1-4.5,2.1-9,3.1-13.5c0.7-3.1,1.3-6.3-3.2-8.5c8.6-0.9,15.9-1.1,23.1,0.8
			c5,1.3,7.4,10.4,4.1,15.4c-1.4,2.1-2.8,4.5-5.3,5.2c-3.3,2.4-6.9,2.5-10.8,1.8c0.7-2.5,3.1-2.2,3.9-4c2.6-4.4,5.7-8.6,2.6-14.4
			c-3.3-2.5-3.9-2.2-4.7,2.2c-1,3.6-1.7,7.2-3.4,10.5c-0.6,1.2-1.1,2.2-0.8,3.8c0.5,2.6-0.8,3.1-2.8,2.3c-1.5-3.2,0.7-6.8-0.7-10.5
			c-1.9,2.8-1.6,6-2.5,8.8c-0.5,1.7-0.4,4.4-3.2,3.5C384.3,134.8,384.2,133.6,384.7,132.5z"/>
		<path class="st5" d="M472,113.6c0,2-0.4,3.9-1.5,5.5c-1.8,3.3-2.1,6.9-2,10.7c0,0.9,0.1,1.8-0.5,2.5c-2.2,5.9-4,12-4.1,18.5
			c-0.3,0.3-0.6,0.4-0.9,0.5c-0.8,0.4-1.5,1.1-2.4,1.3c-3.3,0.6-4.7-0.8-4.4-4.5c0.1-1,0.2-2-0.1-3c0-0.2-0.1-0.4-0.1-0.6
			c0.9-2.4,0.6-5.3,2.3-7.4c2.8-6.8,4.9-13.7,5.7-21.2c0.2-2,0.3-3.9,2.2-4.9c1.3-0.3,2.6-0.2,3.9-0.1
			C471.4,111.1,472.7,111.4,472,113.6z"/>
		<path class="st6" d="M247.2,153.7c-5.9,0.4-11.5,1.1-17.7-0.5c4.1-0.7,5.5-3.6,6.3-6.8c2.3-9.1,4.5-18.2,6.8-27.3
			c0.8-3.3,1.3-6.6-2.3-8.8c5.4,0,10.9,0,16.3,0c-4.2,1.6-4.5,6-5.7,9.9c-2.7,8.5-4.2,17.4-6.6,26
			C243.5,149.5,243.2,152.4,247.2,153.7z"/>
		<path class="st7" d="M120.2,35.4c-1-3.9-1.8-7.9-3.1-11.6c-2.5-6.7-6.9-10.5-13.6-9.2c-3.1,0.6-5.4-1.1-7.4-3.1
			c-2.5-2.4,0.1-4.9,0.7-7.3c0.5-2.1,1.9-2.6,3.7-1.5c8.3,4.5,15.6,10.7,21.4,18.8c2.7,3.7,4,8.3,3.9,13.2c1.6,3.3,0.4,6.9,1,10.3
			c0,1.1-0.4,2-1.2,2.5c-1,0.2-1.7-0.4-2.2-1.3c-0.6-1.6-0.5-3.3-0.5-4.9c0-4.8,0.9-9.7-1.1-14.1c-0.2,1.3,0.2,2.8,0,4.2
			C121.6,32.9,122.2,34.9,120.2,35.4z"/>
		<path class="st8" d="M165.5,134.4c-0.1,0.3-0.2,0.6-0.3,0.9c-2.5,4.1-3.8,8.5-3,13.6c0.2,0.7,0.4,1.3,0.6,2
			c-1.2,1.6-2.9,2.1-4.6,2.2c-2.9,0.1-4-1.6-3.2-4.8c1.1-4.8,2.3-9.5,2.2-14.5c0-1,0-2,0-3c0.7-4.9,1.2-9.9,3.7-14.1
			c0.4-0.6,0.8-1.1,0.9-1.9c0.6-4.2,2.9-4.8,5.9-3.4c2.1,2.2,1.9,4.7,0.9,7.4C167.1,123.8,165.6,128.9,165.5,134.4z"/>
		<path class="st9" d="M48.8,40c-1-1.7-2.5-1.7-4.2-1.8c-8-0.5-14.9,2-22,6.6C16.9,48.4,12,52.8,8.8,58.9C4,68.1,1.9,78.2,2.9,89.2
			c0.5,5.3,2.6,10,2.7,15.3C5.3,105,5,105,4.7,104.6C-0.1,92.6-1,80.5,2.6,67.8C7.2,51.1,23,37.1,39.3,36.1c3.2-0.2,6.7-2.1,9.7,1
			C49.3,38.1,49.6,39.1,48.8,40z"/>
		<path class="st10" d="M137.8,36.3c6.8,0.1,12.6,3.3,18.1,7.3c7.8,5.8,15.1,12.4,19.3,22.2c4.3,10.1,5.2,20.7,2.5,31.6
			c-1,3.9-2.3,7.7-3.5,11.4c-0.9,1.2-1.9,1.1-3,0.3c0.6-4.9,2.9-9.2,3.7-14.1c1.3-8.9,1.8-17.6-1.6-26c-4.1-8-9.4-14.8-16-20.3
			c-4.3-3.6-9.1-6.2-13.9-8.8c-1.9-1-3.9-0.4-5.9-0.7c-2.4-0.4-2.6-0.6-2.7-3.3C135.8,35.9,136.9,35.8,137.8,36.3z"/>
		<path class="st11" d="M62.4,40.1c-1.1-1.3-2.6-3-4-1.1c-1.7,2.3-0.3,4.9,0.9,6.9c0.8,1.4,2.4,2.4,3.8,3
			c5.9,2.4,11.1,5.8,15.4,11.1c1.7,2.2,4.1,3.6,6.2,5.4c1.2,0.5,2.3-0.1,3.5,0.2c3.4,1,5.8-0.6,8-3.5c4.7-6.4,10.9-10.3,17.6-13.2
			c1.3-0.6,2.5-1.1,3.7,0c0.4,0.6,0.4,1.3,0.2,2c-0.8,1.3-2.1,1.9-3.3,2.4C109,56,104.2,59.7,100,64.7c-5.6,6.8-14.3,6.8-20.6,0.6
			c-3.6-3.5-6.6-7.9-11.2-10.1c-1.7-0.8-3.5-1.5-5.2-2.3c-1.9-0.8-3.6-2-5.3-3.2c-2.7-3.1-2.8-6.9-2.4-10.9c0.3-1,0.9-1.7,1.7-2.1
			c0.4-0.1,0.8-0.1,1.3,0c2.9,1.2,6.2,1.2,8.9,3.2C65.6,40.8,64,40.7,62.4,40.1z"/>
		<path class="st12" d="M224.8,142.8c-1.3,3.3-3.8,5.3-6.5,7.2c-1.6,0.3-3.4,1.5-4.8-0.2c-1-1.1-0.3-2.5,0.5-3.6
			c4.1-3.2,6.2-7.7,6.4-13.3c0.1-5.1,0.4-10.2-0.4-15.3c-0.3-1.8-0.9-4.6,2.4-4l0,0c1.1,2.1,2.9,3.5,3.9,5.6c3,6,3.2,12.1,0.5,18.3
			C226.1,139.2,225.7,141.1,224.8,142.8z"/>
		<path class="st13" d="M4.7,104.6c0.3,0,0.6,0,0.9-0.1c2.6,5.2,4.9,10.7,7.9,15.5c4.6,7.3,10.2,13.7,15.6,20.3
			c8.8,10.5,19.1,18.7,28.8,27.8c0.7,0.7,2.1,1.1,1.2,2.7c-9.5-6.6-18.1-14.7-26.3-23.1c-10.7-11-20.2-23.3-26.8-38.1
			C5.4,108,4.6,106.5,4.7,104.6z"/>
		<path class="st14" d="M56.6,66.9c-2.7-5.5-4.1-11.5-4.7-17.7c-2.1-3.5-2.3-7.2-0.9-11.1c0.2-5.2,0.2-10.4,2.5-15.2
			c2.5-5.4,5.4-10.2,10.8-12.2c0.6-0.2,0.9-1,1.4-1.5c0.7-0.6,1.5-0.8,2.4-0.2c0.8,1.1,0.4,2.2-0.2,3.2c-3.8,2.2-6.8,5.5-9.4,9.5
			c-2.2,3.3-2.5,7-3,10.8c0.4,4.4-0.5,8.9,0,13.3c-1.9,5.5,1.7,10,2.4,15c0.2,1.3,1.1,2.4,1.1,3.8C58.8,66,57.9,66.7,56.6,66.9z"/>
		<path class="st9" d="M42.5,47.3c3.3,0.6,5.8-0.2,6.4-4.5c2.4,0.7,1.7,3.2,1.7,4.7c0,1.7-1.9,1-2.9,1.1c-3.1,0.3-6.1,1.1-9.2,1.3
			c-8.2,2.9-15.2,7.5-20,15.9c-6,10.6-6.4,21.9-3.6,33.7c0.3,1.3,0.4,2.6,0.5,4c0.6,1.6,0.3,2.8-1,3.7c-2.9-0.8-0.3-2.9-0.8-4.4
			c-2.4-8.3-1.4-17-1.6-25.5c-0.7-8.7,4.1-14.7,8.9-20.1C26.7,50.8,33.8,46.5,42.5,47.3z"/>
		<path class="st15" d="M158.3,133.3c0.3,5.1-1.1,9.9-2.2,14.8c-0.2,1.1-1.5,2.1-0.4,3.1c0.7,0.7,1.8,1,3,0.7
			c1.4-0.4,2.8-0.7,4.2-1.1c6.4,1.7,11.9-0.2,16.9-4.8c1.5-0.5,3.1-1.2,2.6,1.9c-1.1,5.2-3.9,6.6-8.6,6.3c-7.6-0.5-15.3-0.1-23-0.2
			c-0.1,0-3.2,1.3-1.1-1.5c1.5-1,2.6-2.4,3.7-3.8c1.2-3.3,2.3-6.7,2.1-10.4c-0.2-0.6,0.1-1.1,0.4-1.6
			C156.9,135.8,156.5,133.6,158.3,133.3z"/>
		<path class="st16" d="M345.5,131.9c-2.2-3.2-4.4-6.4-6.5-9.6c-1.3-2-2.3-4.6-0.9-6.7c1.9-2.9,4.4-5.3,7.6-6.2
			c1-0.3,1.8,1.1,2.4,2.1c2.3,3.5,4.7,6.9,7,10.4c1,0.7,1.6,1.5,0.9,2.8c-2.1,1.4-3.2-0.4-4.2-2c-1.3-2.3-2.6-4.5-4.3-6.4
			c-1.1-1.2-2.3-2.3-3.8-1.1c-1.4,1-1.7,2.6-1.3,4.4c1.2,5.9,4.8,9.4,10.1,9.2c3.6-0.1,7.4,1,10.9-1.2c1.1-0.4,2.1-0.4,2.9,0.6
			c-0.5,0.6-1,1.3-1.5,1.9c-0.8,1-1.3,2.5-2.6,2.6C356.7,133,351,134.2,345.5,131.9z"/>
		<path class="st17" d="M499.9,129c-5.3-6.9-1.8-17.5,5.9-19.4c2.9-0.7,5.9-0.9,8.7,0.2c2.9,1.1,5.7,2,8.8-0.4
			c0.2,4.7-1.7,8.4-1.9,12.4c0,0.7-0.5,1.5-1.3,1.2c-0.4-0.1-0.9-0.9-0.9-1.3c0.1-4.1-2.4-6.1-5-8c-2.3-1.5-4.6-1.1-7,0
			c-0.6,0.9-1.1,1.8-1.7,2.6c-1-0.1-0.2-2.9-2-1.8c-4.9,3.6-4.4,8.5-2.3,13.6C500.9,128.8,500.6,129.3,499.9,129z"/>
		<path class="st18" d="M352.7,145.6c-2.2,0.2-2.8,2.5-4.1,3.9c-1.5,1.6-2.7,4.1-5,4c-1.9-0.1-5,1.4-5.6-1.6
			c-0.7-3.3-1.4-7.2,1.1-10.3c2.1-2.5,4.3-4.9,6.5-7.3c4.6-2.1,9.2-1.3,13.9-0.6c1.2,0.7,1.7,1.8,1.6,3.3c-0.5,0.9-1.4,1.1-2.3,1.3
			c-3,0.1-6.1-0.1-9.1,0.1c-3.8,0.2-7.6,4.3-7.9,8.5c-0.1,0.9-0.2,1.9,0.6,2.5c1.1,0.8,1.7-0.3,2.3-1c1.7-2,2.8-5,5.8-4.9
			c0.9,0,1.7,0.2,2.3,0.8C353,144.7,353,145.1,352.7,145.6z"/>
		<path class="st19" d="M534.9,111.6c3.6-2.7,7.4-3.1,11.4-1.8c3,1,6,2.2,9.7-0.4c-1,5.2-1.9,9.5-2.7,13.9c-1.9-0.5-1.6-2.2-1.9-3.4
			c-0.5-2.1-1.4-4-2.8-5.3c-2.4-2.2-5.2-3.6-8-1.3c-2.8,2.4-3.3,5.7-1.6,9.2c1,2,2.1,3.8,3.2,5.7c-0.1,0.1-0.3,0.3-0.4,0.4
			c-3.8,0.1-5.4-1.8-6.1-6.4c-0.5-3.2,1-6.5-0.2-9.6C535.3,112.3,535.1,112,534.9,111.6z"/>
		<path class="st20" d="M311.9,151.6c5.6-0.7,10.1-3.7,14.2-8.4c0.2,7.9-2.2,11-8.1,11c-7.7,0-15.4,0-23.1,0c-1.1,0-2.2-0.1-3.4-0.6
			c2-0.9,3.7-2.2,5.2-3.8c0.2,0,0.4,0.1,0.5,0.1c2.8,1.8,5,1.5,6-2.5c0.2-0.8,0.7-2.3,1.9-0.9C305.2,152,306.4,152.9,311.9,151.6z"
			/>
		<path class="st15" d="M165.5,134.4c-2.4-5.3,0.3-10,1.8-14.6c0.9-2.8,1.7-5.2,0.6-8c3.6-1.1,3.6-1.1,2.4,4.5
			c-0.8,3.6-1.6,7.2-2.6,10.8c-0.5,1.8,0,2.6,1.6,2.5c3.6-0.1,7.3-0.1,9.2-4.6c0.3-0.7,0.8-1.1,2.1-0.9c-1,5-1.9,10.1-4.4,16.3
			c-0.2-4.1-0.6-7-3.5-7.6C170.2,132.2,167.5,131.5,165.5,134.4z"/>
		<path class="st21" d="M424.6,145.4c0.7,2.6-2.3,6.7,3.5,7.8c-6.1,1.9-11.3,0.8-16.4,1.1c-0.6,0-1.1-0.1-1.1-0.9
			c0-0.4,0.3-1,0.6-1.1c4.9-0.7,4.8-5.7,5.8-9.4c2.3-8.5,4.2-17.2,6.5-25.8c0.6-2.2,0.2-3.8-1-5.4c1.4-0.8,2.9-1.1,4.2,0.3
			c0.1,4.3-0.5,8.5-2,12.3c-2.7,7.1-3.3,14.8-5.7,22c-0.4,1.2-1.5,3,0.4,3.9c1.9,0.8,2.5-0.8,2.9-2.6c0.2-0.9,0.5-1.7,1.2-2.3
			C423.9,145.1,424.3,145.1,424.6,145.4z"/>
		<path class="st22" d="M81.5,199.9c-5.1-3.6-8.8-7.9-6.9-15.5c0.2-1-0.4-1.7-0.9-2.4c0.9-1.9,2.2-3.4,4.1-4c1.1,0.3,2-0.2,3-0.8
			c4.9-2.9,9.6-2.1,14.2,0.9c-1.6,1.7-3.7,1-5.5,1.2c-2.7-0.3-5.2,0.5-7.4,2.3c-5.2,4.2-4.9,9.8,0.5,13.5c1.2,0.8,2.9,0.8,3.2,2.9
			C84.7,199.5,83.1,199.7,81.5,199.9z"/>
		<path class="st23" d="M499.9,129c0.3-0.3,0.5-0.6,0.8-0.9c5.7,2.2,11.2,10.5,11.3,16.8c0,1-0.2,2,0.5,3.6c1.2-4.1,4-7.6,0-11.2
			c-0.6-0.5-0.5-1.7-0.1-2.6c1.8-1.5,2.3,1.3,3.7,1.3c3.6,6.7,2,12.8-4.7,17.6c-2.2,0.3-4.3,1.4-6.6,1.2c-1.7-0.1-2.4-0.7-0.8-2.3
			c6.4-2.8,7.3-8.4,2.6-14.8C504.3,134.8,501.1,132.9,499.9,129z"/>
		<path class="st24" d="M352.7,145.6c0-0.4,0.1-0.7,0.1-1.1c2.4-1.8,3.9,0.3,4.9,2c2.3,3.6,5.4,3.3,8.6,3.2c2.1-0.1,2.1-1.3,1-2.9
			c-2.2-3.2-4.5-6.3-6.6-9.6c-0.3-0.9-0.5-1.8-0.8-2.6c1.6-1.3,2.8-0.3,3.9,0.9c2.4,4.9,6.1,8.6,8.9,13.1c1.9,3.1,0.7,4.5-1.8,4.7
			c-3.8,0.3-7.7,0.7-11.5,0C356,152.6,354.6,148.5,352.7,145.6z"/>
		<path class="st25" d="M472,113.6c-1.5-3.6-4.3-1.2-6.5-1.8c-1.3,1.1-1,2.9-1.3,4.4c-0.4,1.6,0.5,4-1.8,4.6c0-1.1-0.1-2.2,0.2-3.1
			c1.1-3.2,0.4-5.5-2.8-6.8c0.2-0.3,0.3-0.7,0.5-1c6.5,0,13.1,0,19.6,0c2.3,0,4.5,0,6.8-0.1c2.8-0.1,3.9,1.2,2.9,4.3
			c-0.6,2.1-1.1,4.2-1.7,6.8C484.7,112.6,480.4,112.1,472,113.6z"/>
		<path class="st26" d="M384.7,132.5c0,1.2,0,2.5,0.1,3.7c-0.2,4.3-1.4,8.5-2,12.7c-0.2,1-0.5,2.2,0.7,2.7c1,0.4,1.8-0.3,2.5-1
			c0.9-1,0.9-2.4,1.2-3.7c1.1-4.3,1.4-8.9,4.1-12.5c0.7-0.7,2.7-0.6,1.3-2.7c-1-1.6-0.3-2.8,1.1-3.6c1.7,4,4.8,1.1,7.2,1.9
			c-0.3,2.6-2.4,2.4-4.2,3c3.7,1.7,6.8-0.5,10-1.1c-2.6,3.3-6,2.9-9.3,2.5c-3.5-0.4-5.6,0.7-6.1,5c-0.2,1.6-0.6,3.3-1.2,4.8
			c-1.6,4-2.1,7.5,2.4,9.7c-5.4,0-10.8,0-16.2,0c5.2-3.2,5-9.2,6.2-14.2C383,137.2,383.6,134.8,384.7,132.5z"/>
		<path class="st27" d="M214.6,146.4c-2.1,5.7,2.2,2.7,3.7,3.6c-5.5,3.8-11.5,4.7-17.8,4.4c-4.1-0.2-8.1,0-12.4-0.4
			c3.7-2,4.6-6.1,6.2-9.6c1,0.9,1,2.1,0.8,3.3c-0.1,1.4-1.5,2.9-0.1,4.1c1.1,1,2.5,0.8,3.8,0.3c1.6-0.6,0.9-2.2,1.1-3.5
			c0.8-6.4,2.4-12.6,4.4-18.6c0.3-1,0.8-1.9,1.9-2c1.7,1.6,0.9,3.6,0.4,5.4c-1.1,4-2,8.1-3,12.1c-0.3,1.4-0.9,3,0.3,4.2
			c1.2,1.1,2.5,0.4,3.8,0c2.2-0.6,3.8-2.7,5.9-3.6C214,146,214.3,146.1,214.6,146.4z"/>
		<path class="st28" d="M170.4,116.2c-0.5-1.7,1.7-5.3-2.4-4.5c-2.7-0.3-5.3-0.4-5,4.2c0.1,0.8-0.7,1.1-1.4,1.3
			c-1.2-1.8-0.4-3.8-0.3-5.7c0.7-1.3,1.8-2,3-2.5c0.6-0.2,1.3-0.3,2-0.4c2.8-0.3,5.4,0.8,8.1,1.1c3.6,0,7.2,0.1,10.7,0
			c2.8-0.1,4.3,0.8,3.2,4.5c-0.6,2.1-0.3,4.5-2.5,6.6c-0.9-7.9-6-7.7-11-8C172.5,112.9,171.1,113.7,170.4,116.2z"/>
		<path class="st29" d="M81.5,199.9c1.1-1.5,2.6-1.9,4.2-2c1.1-1.3,2.6-1.3,4-1.8c3.2-1.2,6.4-4.9,6.3-7.9c-0.2-3.5-1.8-6.2-4.8-7.6
			c-1-0.5-2.4-0.7-2.6-2.4c2.1,0,4.3-0.1,6.4-0.1c2.5,2,5.2,3.9,6.6,7.3c0.4,0.6,0.4,1.2,0.2,1.8c-0.5,0.3-1.2-0.2-1.5,1.3
			c-1.4,8-4.9,11.2-12.2,11.7c2.6,0.9,4.9-2.3,7,0.4c0.3,1.3-0.4,1.6-1.2,1.6c-3.1-0.1-6.2,0.5-9.3-0.3
			C83.7,200.9,82.3,201.2,81.5,199.9z"/>
		<path class="st30" d="M279.2,112.6c-10.9,9.3-15,22.4-11.1,35.4c-0.2,0.1-0.3,0.3-0.5,0.4c-2.7,0-2.6-2.4-3-4.4
			c-1.7-7.6-0.1-14.6,2.7-21.5c0.6-1.6,2-3.2-0.3-4.5c-0.3-0.2-0.6-0.6-0.8-1c1.9-2.7,4.4-4.3,7.3-5.4
			C275.4,111.8,277.7,109.5,279.2,112.6z"/>
		<path class="st31" d="M448,122.4c-0.1,0.3-0.3,0.4-0.6,0.4c-1.1,1.6-1.6,3.7-3,5.1c-1.1,1-2.3,1.5-3.7,0.9
			c-1.5-0.7-1.7-2.3-1.5-3.8c0.3-2,0.4-3.9-0.6-5.6c-0.5-1.6-0.9-3.3-0.6-5c2.2-3.7,4.9-4,7.7-0.5
			C447.4,116.1,449.2,118.8,448,122.4z"/>
		<path class="st32" d="M467.9,132.3c-0.9-4,0-7.9,0.8-11.8c0.2-1.1,0.8-1.4,1.7-1.4c0.5,2.7-0.8,5-1.3,7.5
			c-0.4,2.1,0.2,2.6,1.9,2.7c3.5,0.2,6.7-0.4,8.6-4.2c0.5-1,1.1-1.6,2.3-1.9c-0.4,5.6-2.9,10.4-4.1,16.2c-1.5-2.4-0.6-5.9-3.3-6.6
			C472.5,132.4,470.2,132.5,467.9,132.3z"/>
		<path class="st33" d="M117.7,49.1c-7.3,1.2-13.4,5.3-18.4,11.3c-5.3,6.3-8.5,7.6-14.4,5.1c0.4-0.2,0.8-0.6,1.1-0.5
			c5.6,2.1,8.7-2.2,12-6.1c4.6-5.4,10.4-8.7,16.5-11c4.7-1.8,2.8-6,3.1-9.4c-0.4-0.6-0.4-1.2,0.2-1.7c0.7,0.8,1.4,1.7,2.1,2.5
			C121.3,43.4,120.5,46.8,117.7,49.1z"/>
		<path class="st34" d="M358.5,115.3c-3.3,0-7-3.4-7.1-6.6c-0.1-3,3.9-6.6,7.4-6.6c3.8,0,7,2.8,7,6.2
			C365.8,112.2,362.6,115.3,358.5,115.3z"/>
		<path class="st35" d="M104.8,150.8c-6.8-3.1-11.4-9.2-14.9-16c-3.4-6.7-6.2-14-5.9-22.2c-0.5-2.5-0.8-4.9,0.2-7.4
			c2.7,0.7,2.3,3.3,2.4,5.4c0.3,5.6,1.2,11,3,16.3c2.5,7.5,7,13.1,12,18.2c1.2,1.1,2.8,2,3.5,3.7
			C105.3,149.6,105.3,150.3,104.8,150.8z"/>
		<path class="st36" d="M432.8,142.7c-0.1-0.3-0.2-0.6-0.4-0.9c0.7-2.1,0.1-4.1-0.6-6.1c-0.6-1.6-1.1-3.1,0.3-4.5
			c0.9-0.6,1.9-0.6,2.9-0.5c1.5,0.2,2.2,1.4,2.3,3c0.2,2.5,1.6,4.6,2,7.1c0.5,1.9,0.8,3.7,1.5,5.6c0.6,1.8,2.2,4.3-0.3,5.9
			c-2.1,1.3-4.2-0.2-5.4-3.5C434.4,146.8,433.8,144.7,432.8,142.7z"/>
		<path class="st37" d="M222.4,113.5c-1.9,0.3-1.9,2-1.5,3.4c1.3,5.8,0.5,11.7,0.6,17.5c0.1,4.7-3.7,10.8-6.9,11.9
			c0,0-0.2-0.1-0.2-0.1c-0.5-2.7,1.2-4.5,2-6.6c3-8.1,4.3-16.1-0.5-24c-1.4-4.7-1.4-4.7,3.4-4.1C220.5,112,221.6,112.4,222.4,113.5z
			"/>
		<path class="st38" d="M311.2,125.4c-1,3.9,0.7,4.6,3.7,4.3c3.8-0.5,6.4-3,8.7-6.5c-0.1,5.8-2.8,10.6-3.4,16.1
			c-1.5-2.3-0.9-5.9-3.7-6.4c-2.5-0.5-5.2-1.6-7.6,0.8c-0.1-0.2-0.3-0.3-0.4-0.5c-0.7-1.8,0.1-3.6,0.3-5.3
			C309.1,126.4,309.4,125,311.2,125.4z"/>
		<path class="st39" d="M530.2,154.1c-2.4,0.1-4.8,0.1-7.1,0.5c-1.5,0.3-1.4-0.6-1.5-1.7c-0.1-2.2,2.1-11.1,3.7-14
			c1.3,4.9,1.8,10,5.9,12.9C530.6,152.4,530.1,153.1,530.2,154.1z"/>
		<path class="st40" d="M296.8,149.9c2.5-9.9,5-19.7,7.5-29.6c0.7-2.9,1.6-5.7-0.1-8.5c1.2-1.2,2.5-1.1,3.8-0.3
			c0.6,4.9-1,9.4-2.2,13.9c-1.9,6.9-2.6,14.1-5,20.8c-0.7,1.9-1,4.7-3.9,3.9L296.8,149.9z"/>
		<path class="st41" d="M155.8,138.2c0,0-0.2,0.3-0.2,0.3c-5.6,6.6-11.9,12.2-19.5,15.7c-1.5,0.7-3,1.1-4.6,1.3
			c-0.7,0.3-1.2,0-1.5-0.8c-0.1-0.5,0-0.9,0.2-1.3c8.5-3.6,15.8-9.5,22.5-16.4c0.9-1,1.9-2.8,3.6-1.3
			C156.6,136.7,156.5,137.5,155.8,138.2z"/>
		<path class="st42" d="M117.7,36.6c-0.1,0.6-0.1,1.1-0.2,1.7c-5.6,0.4-10.6,3.1-15.4,6.1c-4.5,2.8-9.4,4.5-13.1,8.9
			c-0.1,0.1-0.8-0.5-1.2-0.8C96.3,43.5,106,37.7,117.7,36.6z"/>
		<path class="st43" d="M432.8,142.7c2.1,1.3,2.5,3.8,3.2,6.1c0.7,2.5,2.2,3.7,4.1,2.8c2.1-1,0.7-3.2,0-4.4c-1-2-1.2-4.2-1.7-6.3
			c0.9-1.1-0.5-2.8,0.8-3.8c1,3.3,2.3,6.4,2.9,9.8c0.6,3.3,1.9,5.6,4.8,7.2c-3.4,0-6.8,0.2-10.2-0.1c-1.4-0.1-2.1-1.8-2.4-3.3
			C433.7,148,433.3,145.4,432.8,142.7z"/>
		<path class="st44" d="M448,122.4c-0.1-3.9-1.3-6.7-4.4-9.1c-2.6-1.9-3.6-0.5-5.1,1.1c-2.8-0.9-4.7,1.4-6.8,2.8
			c-0.7-3.2-3.1-4.1-5.4-5.4c-1.3,0.3-2.6,0.5-3.8,0c-0.4-0.3-1.1-0.5-1.2-0.9c-0.2-0.8,0.5-0.8,1-0.8c7.1,0.1,14.3-1,21.2,1.3
			C447.5,112.7,449.4,117.8,448,122.4z"/>
		<path class="st45" d="M77.8,178c-1.4,1.3-1.7,4-4.1,4c-0.6-0.5-1.2-0.9-1.8-1.4c2.8-2.2,2.3-3.7-0.4-5.6c-5-3.4-8.8-8.8-14-12
			c-1.2-0.7-1.6-1.8-1.4-3.3C63.4,165.8,71.2,170.9,77.8,178z"/>
		<path class="st46" d="M489.3,151.5c0.6-3.3,1.2-6.7,1.8-10c0.2-0.9,0.4-2,1.3-2c0.9,0,1.1,1.1,1.1,2c-0.1,2.9,1.7,4.9,2.5,7.4
			c0.3,1.8,3.2,2.2,2.4,4c-0.9,2.2-3.3,1-5,0.9C492,153.7,489,155.9,489.3,151.5z"/>
		<path class="st47" d="M538.1,152.6c4.5-5,4.8-7.2,1.5-14.4c0.8-0.7,1.4-0.2,2.1,0.3c1.3,1.4,1.7,3.4,2.4,5.2
			c0.6,1.7,1.4,3,3.2,2.3c0.6,0.7,1.4-0.1,2.1,0.3c-1.6,8-10.3,10.6-17.6,8.2c3.2-2.2,6.9,0.5,9.6-1.9
			C540.8,152,539.3,154,538.1,152.6z"/>
		<path class="st48" d="M439.2,137c-0.3,1.3,0.3,2.8-0.8,3.8c-1.5-2.8-0.9-6.7-3.3-9.1c-0.4-0.6-0.6-1.2-0.6-2
			c2.2-3.3,3.1-7.3,5-10.7c1.6,1.7,1.3,3.7,0.7,5.8c-0.3,1.1-0.7,2.5,0.6,3.1c1.1,0.5,2.2,0.4,3.2-0.9c1-1.5,2.2-2.8,3.4-4.2
			c0.1,4.5-2.7,6.6-5.7,7.6C438,131.6,438.1,133.8,439.2,137z"/>
		<path class="st19" d="M541.5,139c-0.6-0.3-1.2-0.6-1.8-0.8c-2.9-3.6-6.6-6.5-8.5-11.1c-2.7-6.3-1.4-11.9,3.8-15.5
			c0,0,0.2,0.3,0.2,0.3c0.9,1.4,0.1,2.6-0.4,3.8c-2.5,6.4-1.4,11.1,3.2,16C539.8,133.6,542.4,135.3,541.5,139z"/>
		<path class="st49" d="M57.3,36.6c-0.3,0.7-0.6,1.4-1.4,1.5c-2.1-1.8-0.1-4.1-0.6-6.1c1-3.7,2.4-7.3,4.1-10.6
			c2.6-5,6.3-8.3,11.4-9.7c1.8-0.2,3.6-0.5,5.2,0.8c0.4,0.7,0.5,1.4,0,2.1c-8.9-0.6-13.3,5.7-16.7,13.7C58.7,31.1,58.3,34,57.3,36.6
			z"/>
		<path class="st50" d="M470.2,151.6c5.6-1.1,10.3-4.3,14.6-9.4c-1.2,11.3-2.7,12.7-11.9,11.8C472.8,151.9,470.6,153.1,470.2,151.6z
			"/>
		<path class="st51" d="M36.1,140.8c-3.3-0.5-4.4-4-6.1-6.3c-3.7-5.1-8.6-9.4-9.9-16.5c0.5-0.4,1-0.4,1.6,0
			c4.7,8.1,10.2,15.5,15.9,22.8C37.1,141.3,36.6,141.4,36.1,140.8z"/>
		<path class="st52" d="M272.1,151.1c5.9,0.9,11-1,15.2-6.2c-1.9,9.1-13.9,13.1-21.1,8.8C267.6,151.2,270.7,153.7,272.1,151.1z"/>
		<path class="st45" d="M36.1,140.8c0.5,0,1,0,1.5,0c6.2,6.3,12.4,12.6,18.6,19c-3.7,1-5.5-2.6-7.6-4.7c-2.9-2.8-5.6-5.8-8.8-8.2
			C37.8,145.5,36.6,143.4,36.1,140.8z"/>
		<path class="st53" d="M76,14.7c0-0.6,0-1.2,0-1.9c1.2-1.4,5.3-1.3,2-5c-2.6-2.2-5-1.1-7.2,0.9c-0.8,0.5-1.7,1-2.7,0.5
			c-0.8,0-1.6,0-2.4-0.1c1.7-4.4,5.7-5,8.9-6.7c2.2-1.2,4.4,1.7,5.8,3.6c1.4,1.8,2.8,4.7,1.8,7C81,15.6,78.2,14.6,76,14.7z"/>
		<path class="st37" d="M224.8,142.8c-0.2-1.7,0-3.3,0.8-4.8c3.7-7.9,3.1-15.1-2.5-21.5c-0.7-0.9-0.7-1.9-0.6-3
			c7.6,2.4,9.6,19.4,3.8,27.7C225.8,141.8,225.3,142.3,224.8,142.8z"/>
		<path class="st54" d="M84.8,105.4c-1.6,2.3-0.4,4.9-0.8,7.3c-1.2-2.4-0.9-5-0.7-7.5c0.3-3.5-0.7-5.2-3.7-6.6
			c-5.5-2.7-10.6-6.2-14-12.2c0.3-0.3,0.7-0.5,1.1-0.5c4.2,0.8,5.9,5.9,9.8,7.3c1.6,0.6,2.9,1.8,4.7,2.2
			C84.9,96.3,86.8,101.8,84.8,105.4z"/>
		<path class="st55" d="M470.2,151.6c0.9,0,1.8,0,2.7,0.1c0.7,0.1,1.8-0.3,1.8,1c0,1.1-1.3,0.7-1.8,1.3c-7.9,0-15.7,0-24.4,0
			c2-2,4.6-1.4,5.5-3.6c0.7-1.9,1.3-3.9,1.9-5.8c0,0,0.2,0.2,0.2,0.2c0.5,1,0.6,1.9,0.4,3c-0.3,1.6-1.8,4,0.3,4.5
			c1.9,0.5,4.8,1.9,6.3-1.5c0.2,0,0.5,0,0.7,0C466,151.1,468.1,151.4,470.2,151.6z"/>
		<path class="st56" d="M259.1,145.5c-3.4-7.1-1.6-13.8,1.2-20.3c1.4-3.2,3-6.4,5.9-8.1c0,0,0.3,0.3,0.3,0.3
			c0.6,2.3-0.4,4.3-1.4,5.8c-3.9,5.8-5.4,12.1-4.6,19.3c0.1,0.7-0.3,1.5-0.6,2.1C259.7,145,259.4,145.3,259.1,145.5z"/>
		<path class="st57" d="M363.8,135.4c-1.3-0.3-2.6-0.6-3.9-0.9c-4.8-0.1-9.6-0.1-14.4-0.2c0-0.8,0-1.6,0-2.4c4.6,0,9.2-0.1,13.8,0.1
			c2.1,0.1,3.8-0.8,5.5-2C364.5,131.8,364.2,133.6,363.8,135.4z"/>
		<path class="st58" d="M219.3,111.6c-1.1,0.1-2.3,0.2-3.5,0.3c0.3,1.2,0.6,2.3,0.9,3.4c-3.1-1.1-5.9-1.3-6.8,3.3
			c-0.1,0.6-0.8,0.7-1.3,0.3c-0.2-0.2-0.3-0.5-0.4-0.8c-1.1-6.1-1-6.1-6.2-4.1c-1.5,0.2-2.1-1-2.6-2.2c-0.6-0.4-1.1-0.7-2.6-1.7
			C204.9,109.8,212.1,109.4,219.3,111.6z"/>
		<path class="st59" d="M355.9,124.4c-0.3-0.9-0.5-1.8-0.8-2.7c4.3-0.5,7-4.6,10.7-6.3c1.3-0.6,2.5-1.7,3.7-2.6c3.7,0.9,4.3,3,2.4,8
			c-2.8-3.2-5.4-1.9-8.1,0.5c-1.2,1.1-2.7,1.8-4.2,2.4C358.4,123.9,357.4,125.7,355.9,124.4z"/>
		<path class="st60" d="M62.4,40.1c1.6,0,3.2,0,4.8,0c7.1,2.5,13.4,6.5,18.7,12.6c-1.1,0.1-2.2,0.4-3.1-0.4
			C76.7,46.6,69.9,42.6,62.4,40.1z"/>
		<path class="st61" d="M308,111.8c-1.3,0-2.5,0-3.8-0.1c-0.8-0.1-1.6-0.1-2.2-1.4c7.2,0,14.3,0,21.3,0c1,0.4,2.8-0.7,3,0.9
			c0.2,1.5-1.3,1.8-2.5,1.5c-2.8-0.1-5.7-0.1-8.5-0.2c-1.2-0.4-2.4,0.6-3.6,0.4C310.3,113,309,112.8,308,111.8z"/>
		<path class="st62" d="M371.2,120.9c1.1-3.1,1.9-6.1-1.7-8c0.7-0.7,1.3-1.5,2-2.1c1.8-1.6,2.4-0.8,2.6,1.6c0.7,6.6-0.4,12-6.4,14.8
			c-1.3,0.3-1.7-0.5-1.7-1.8C367.2,122.9,369.3,122.1,371.2,120.9z"/>
		<path class="st63" d="M462.4,120.8c1.1-2.3,1.8-4.7,1.4-7.2c-0.3-2.1,0.7-1.9,1.7-1.8c-1.1,7.7-2.1,15.5-5.2,22.6
			c-0.5,1.1-0.4,2.9-2.2,2.7C458.9,131.4,460.3,126,462.4,120.8z"/>
		<path class="st17" d="M516,136c-2.2,2.4-1.9-1.8-3.3-1.6c-5.2-2.4-8-7.1-9.6-12.8c0-1.9,0-3.9,2.2-4.3c-0.5,6.7,4.5,9.6,7.5,13.9
			C513.9,132.7,515.8,133.7,516,136z"/>
		<path class="st64" d="M56.6,66.9c0.3-1,1-1.3,1.8-1.5c0.9-0.8,1.9-1,3-0.7c3.5,3.6,7.1,7.1,7,13.2c-0.2,0.4-0.5,0.6-1,0.6
			c-2.5-1.7-3.9-4.6-6-6.9c-1.1-1.3-2.1-2-2.7,0.5c-0.1,0.4-0.3,0.7-0.7,0.8C56.3,71.3,55.9,69.3,56.6,66.9z"/>
		<path class="st65" d="M84.6,201.7c2.9,0,5.7-0.1,8.6-0.1c1.3,0,1.7-0.5,1.2-1.8c3.8-3.2,6-7.6,7.2-12.7c0-0.6,0-1.2,0-1.8
			c3,5,1.6,11.6-3.1,15.1c-0.9,0.6-1.8,1.2-2.7,1.8c-3.7,0.1-7.3,0.1-11,0.2C84.7,202.3,84.6,202,84.6,201.7z"/>
		<path class="st66" d="M104.8,150.8c0-0.6,0-1.2,0-1.8c1.4-1.1,2.7-0.3,3.6,0.5c4.9,4.2,10.8,3.9,16.4,5c0.4,0.2,0.7,0.5,1,0.9
			c-1.1,2.7-3.4,0.4-4.9,1.4C114.6,157.8,109.5,154.9,104.8,150.8z"/>
		<path class="st7" d="M117.7,49.1c2-3,1.5-6.6,2.1-10c0.2-0.4,0.5-0.8,0.7-1.2c0.2-2.4,1.1-2.7,2.3-0.9c0.7,1,0.4,2.6,0.8,3.9
			c0.4,3.1-0.4,5.9-2,8.5c-0.9,1.6-0.6,4.5-3.3,4.4c-0.9-0.9-0.8-2.1-0.6-3.3C117.7,50,117.7,49.5,117.7,49.1z"/>
		<path class="st30" d="M259.1,145.5c0.1-0.3,0.1-0.7,0.2-1c2.7-0.2,3.6,2.5,5.1,4.2c1.5,1.6,2.5,1.6,3.5-0.4c0,0,0.3-0.2,0.3-0.2
			c1.3,1,2.7,2.1,4,3.1c0.6,0.9,2.5,1.9-0.1,2.4c-1.9,0.3-3.8,0.2-5.8,0.2C262.9,152.1,260,149.9,259.1,145.5z"/>
		<path class="st67" d="M123.2,40.9c-0.3-1-0.6-1.9-0.8-2.9c-0.6-2.4-1.2-1.1-1.9-0.1c-0.1-0.8-0.2-1.6-0.3-2.5
			c1.4-3.7,0.4-7.5,0.2-11.9c4.9,5.4,3.6,11.5,3.4,17.4C123.7,41.3,123.5,41.3,123.2,40.9z"/>
		<path class="st68" d="M194.4,148.1c0-1.3-0.1-2.5-0.1-3.8c1.6-6.9,3.2-13.8,4.9-20.8c0.4-0.3,0.8-0.3,1.2,0
			c1.9,2.1,1.1,4.7,0.3,6.7c-1.6,4.6-2.2,9.5-3.6,14.1C196.6,146,196.5,148,194.4,148.1z"/>
		<path class="st69" d="M549.5,146.3c-0.5,0-1.1,1-1.6,0c-0.1-5.6-2.1-10.2-5.8-13.9c-1.1-1.1-1.7-2.8,0.1-4.1c0,0,0.1-0.1,0.1-0.1
			C549,133.6,551.3,139.5,549.5,146.3z"/>
		<path class="st70" d="M323.7,112.7c0.7-0.4,1.4-0.8,2.5-1.4c-1.2-0.4-2.1-0.7-2.9-1c1.1-0.1,2.1-0.2,3.2-0.2
			c6-0.1,6.2,0.3,4.1,7.1c-1.2,0.9-1.9,0.2-2.5-0.9C326.6,115.2,325.1,114,323.7,112.7z"/>
		<path class="st71" d="M489.3,151.5c2.3,4.2,5.6,1.2,8.5,2c0-2.2-2.3-2.6-1.8-4.5c2.1,2.7,5.1,3,7.9,3.6c-0.8,2.6,1,1.9,1.9,1.7
			c1.8-0.4,3.6-1,5.5-0.7c-3.4,2.3-7.1,2-10.7,1.3c-3.1-0.6-6.3-1.2-9.4-0.4C487.9,155.3,488.5,153.6,489.3,151.5z"/>
		<path class="st72" d="M435.1,129.8c0,0.6,0,1.3,0,1.9c-1,0-2.1,0-3.1,0c-1.3,1,0.3,2.9-1,3.9c-1-0.6-0.7-2.9-2.3-2.5
			c-1.3,0.3-1,1.9-1.3,3c-1,3-1.8,6.2-2.7,9.2c-0.2,0-0.5,0-0.7,0c-2.4-3.3-1.1-6.6,0.2-9.6c0.9-2.1,2.2-4,3.9-5.5
			C430.3,129.6,432.6,128.4,435.1,129.8z"/>
		<path class="st73" d="M279.2,112.6c-1.7-1.6-3.8-0.4-5.7-1c3-1,6.1-1.9,9-3.2c1.7-0.7,2.4,1.1,3.6,1.2c1.4,0.1,2.6,1.8,4.1,1.1
			c0.5,1.7-1,1.9-1.6,2.8C285.7,111.8,282.5,111.4,279.2,112.6z"/>
		<path class="st74" d="M311.9,111.8c1.1,0.1,2.3-0.4,3.2,0.8c-2.9,3.6-2.3,8.7-4,12.8c-1.1,0.4-1.6,1.4-1.6,2.7
			c-1.5,0-1.9-1.5-1.6-2.5C309,120.9,309,115.8,311.9,111.8z"/>
		<path class="st75" d="M311.9,151.6c-4.9,2.3-7.2,0.6-7.2-5.3c-1.9-5.3-0.2-10.8,3.9-12.8c0,0,0.2,0.1,0.2,0.1
			c-0.2,4.2-1.7,8.1-2.6,12.2c-1.1,5.3-1.2,5.4,3.7,5.7C310.6,151.5,311.3,151.6,311.9,151.6z"/>
		<path class="st76" d="M288.7,113.5c-1.1-2.1,1.5-1.5,1.6-2.8c1.5-1.5,3.5-1.3,4.5-0.2c1.2,1.2-0.2,3.2-0.5,4.9
			c-0.7,1.5-0.3,3.6-2.1,4.7C291,118.1,290.3,115.5,288.7,113.5L288.7,113.5z"/>
		<path class="st77" d="M137.8,36.3c-1.2,0-2.3,0.1-3.5,0.1c-5.1,0.4-6.4,4.3-6.5,9.3c-0.6,0.4-1.2,0.5-1.8,0.1
			c-1.1-3.6-0.5-7.3-0.2-11C129.9,34.7,134,34.1,137.8,36.3z"/>
		<path class="st78" d="M38.4,49.9c2.4-1.3,5.2-1.5,7.7-1.5c4.7,0.1,4-2.4,2.8-5.6c0-0.9-0.1-1.9-0.1-2.8c0.1-1,0.1-1.9,0.2-2.9
			c0.5,0.8,1.1,1.3,2,0.9c0.3,3.7,0.6,7.4,0.9,11.1C47.4,49.4,42.9,49.7,38.4,49.9z"/>
		<path class="st15" d="M162.3,148.9c-0.1,0-0.3,0-0.4-0.1c-2.3-3.4-0.2-11.7,3.4-13.5C164.3,139.9,163.3,144.4,162.3,148.9z"/>
		<path class="st79" d="M538.1,152.6c1.9-0.3,3.8-0.5,6.7-0.9c-4.7,3.3-8.9,2.7-13,2.8c-0.6-0.1-1.1-0.2-1.7-0.4
			c-0.4-0.9-2.2-0.2-1.8-1.7c0.4-1.3,1.8-0.5,2.7-0.7C533.5,152,535.8,152.3,538.1,152.6z"/>
		<path class="st80" d="M21.7,118.1c-0.5,0-1,0-1.6,0c-1-4.2-4.5-6.8-5.7-10.9c0.3-1.2,0.6-2.5,1-3.7
			C18.4,107.8,19.2,113.4,21.7,118.1z"/>
		<path class="st13" d="M59.2,170.8c4.9,0.8,8.4,4.4,12.1,7.5c0.2,0.2-0.1,1.1-0.1,1.6C66.8,177.6,62.8,174.5,59.2,170.8z"/>
		<path class="st81" d="M66.5,86.3c-0.3,0-0.5,0-0.8,0c-3.4-3.8-5.6-8.5-7.5-13.5c0.2,0,0.3-0.1,0.5-0.2c0.5-1.1,1.3-1.3,1.8-0.3
			c2.2,3.8,4.3,7.7,6.4,11.5C67.3,84.6,67.1,85.6,66.5,86.3z"/>
		<path class="st48" d="M431,135.7c0.9-1.1-1.6-3.3,1-3.9c-0.2,1.8,0.2,3.4,1.1,5c1,1.7,1.9,3.7-0.6,5
			C430.7,140.1,431.6,137.7,431,135.7z"/>
		<path class="st82" d="M199.9,123.3c-0.2,0.1-0.5,0.2-0.7,0.2c0.1-3.9,0.1-7.8,0.2-11.7c0.8,0.6,1.5,1.2,2.3,1.8
			C203.3,117.4,201.3,120.3,199.9,123.3z"/>
		<path class="st83" d="M288.7,113.6c2.2,1,2.7,3.4,3.7,5.7c0.7-1.4,1.3-2.7,1.9-3.9c0.3,2.7-0.9,4.8-2.1,7.2
			C291.5,119.3,289.7,116.7,288.7,113.6z"/>
		<path class="st84" d="M505.4,117.3c-1.1,1.2-1.5,2.8-1.5,4.5c-2.1-0.1-1.5-1.9-1.4-3.2c0.1-1.7,0.8-3.4,1.4-5
			c0.3-0.7,0.6-1.5,1.4-1.2c0.8,0.3,0.6,1.1,0.4,1.8c-0.1,0.7-0.1,1.5-0.1,2.2C505.5,116.6,505.4,117,505.4,117.3z"/>
		<path class="st85" d="M182.4,148c-0.2-1.9-1.5-1.7-2.6-1.9c1.2-1.4,2.2-3,3.9-3.8C184.4,144.6,183.1,146.2,182.4,148z"/>
		<path class="st86" d="M57.3,36.6c-0.1-3,0.9-5.7,2-8.3c-0.3,2.8-0.7,5.6-1,8.5C58,36.7,57.6,36.7,57.3,36.6z"/>
		<path class="st87" d="M507.3,113.7c2.3-2.1,4.6-3,7,0C511.9,113.7,509.6,113.7,507.3,113.7z"/>
		<path class="st41" d="M120.8,156.9c1.4-1.4,3.5,0.3,4.8-1.5c1.3-0.7,2.6-1.4,2.4,1.4C125.6,156.9,123.3,157.8,120.8,156.9z"/>
		<path class="st88" d="M328,116.4c0.8,0.3,1.7,0.6,2.5,0.9c-0.2,1.1,0.7,3.3-0.9,3.1C328,120.3,328.4,117.9,328,116.4z"/>
		<path class="st66" d="M128,156.7c-0.3-1.6-1.4-1.4-2.4-1.4c0,0,0-0.1,0-0.1c1.2-3,2.9-2.1,4.7-0.9c0.4,0.4,0.8,0.8,1.2,1.1
			C130.5,156.6,129.3,156.6,128,156.7z"/>
		<path class="st89" d="M174.4,109.8c-3,0.3-6,0.5-9,0c1.6-3,3.7-2.2,5.9-0.9c1,0,1.9,0,2.9,0C174.2,109.2,174.3,109.5,174.4,109.8z
			"/>
		<path class="st90" d="M153.5,148.9c-0.6,2.1-1.3,3.9-3.7,3.8C150.5,150.8,151.6,149.4,153.5,148.9z"/>
		<path class="st91" d="M366.4,125.4c0.5,0.6,0.9,1.1,1.4,1.7c-0.3,0.8-0.8,0.9-1.5,1c-1.1,0-2.1,0-3.2,0.1
			c-0.1-0.2-0.1-0.4-0.2-0.6C363.7,126.1,364.6,124.9,366.4,125.4z"/>
		<path class="st92" d="M42.5,47.3c-8.9,1.4-16.9,4.9-23,12.9c-3.8,5-6.3,10.6-7.4,17.1c-1.6,3.6-0.4,7.4-0.8,11
			c-0.2,1.9,0.5,3.9-0.7,6.1C9,91.6,9.7,89,9.7,86.5c-0.2-11.7,2.8-22.4,10.4-30.2c5.9-6.1,13.2-10.2,21.6-10.3
			C41.9,45.9,42.2,46.8,42.5,47.3z"/>
		<path class="st93" d="M391.2,134.5c-0.8,5.3-3.1,10.1-3.5,15.6c-0.1,2-2.6,3.9-4.9,3.2c-2.7-0.9-1.6-3-1-5.1
			c1.2-3.9,0.5-8.4,2.9-11.9c2.3-1.6,1.9-4.4,2.3-6.8c0.3-1.5,0.1-3.2,1-4.3c1-1.2-0.2-4.7,2.2-3.9c1.6,0.5,1.8,3.6,1.5,5.5
			C391.2,129.4,391.1,131.9,391.2,134.5z"/>
		<path class="st94" d="M400.7,130c-1.2,0.6-2.3,1.3-3.6,1.6c-2.4,0.6-4.2,0.1-3.6-3.5c1.1-3.6,2.1-7.3,3.2-10.9
			c1.7-4.6,2.6-5,6.2-2.7C405.5,119.5,404.9,124.1,400.7,130z"/>
		<path class="st95" d="M410.9,119.7c0.7,5.4-2,7.5-4.3,9.7c-0.9,0.9-1.8,0.3-1.5-1.3c0.4-2.6,0.9-5.3,1.2-7.9
			c0.3-2.4,1.7-3,3.4-2.9C411.7,117.6,410.9,119.6,410.9,119.7z"/>
		<path class="st96" d="M403,114.5c-3-2-4.7,0.2-6.2,2.7c-0.1-1.8-0.3-3.9,1.8-4.4C400.2,112.4,402.1,112,403,114.5z"/>
		<path class="st97" d="M463.1,150.9c0.9,1.9,0.5,2.7-1.5,2.7c-2.5-0.1-4.9,0-7.8,0c1.3-3,2.1-5.8,2.2-8.8c0.9,0.3,1.3,1,1.3,2
			C457.4,152.4,458.2,152.9,463.1,150.9z"/>
		<path class="st98" d="M239.2,151.7c-1.1-0.1-2.7,0.2-1.9-2.1c1.4-4,1.8-8.1,1.9-12.3c0-0.3,0-0.7,0.1-0.9c3.7-7,3.7-15.4,7.1-22.5
			c0.8-1.6,1.7-2.5,3.1-1.8c1.6,0.8,1.1,2.1,0.5,3.7c-3.9,10.7-5.7,22.2-8.3,33.3C241.3,150.8,241,151.9,239.2,151.7z"/>
		<path class="st0" d="M126.1,45.8c0.6-0.1,1.2-0.2,1.8-0.3c0.2,0.1,0.4,0.2,0.6,0.3c1.7,1.8,3.8,1.1,5.7,1.2
			c7.7,0.5,15.1,1.9,21.2,7.7c9.9,9.4,14.4,21.2,12.2,36c-0.1,0.9-0.1,1.8-0.2,2.7c-0.6,2.5-1,5-1.8,7.4c-2.4,5.5-4.8,11-7.7,16.1
			c-3.9,7.6-9,14-14.4,20.2c-6.2,5.5-12.4,10.9-20.5,12.2c-4.2,0.2-8.5,0.2-12.6-1.3c-4.3-1.5-7.9-4.3-10.6-8.3
			c-3.6-6.2-6.3-13-8.4-20c-0.5-2.3-0.2-4.8-0.9-7.1c-0.4-3.2-0.4-6.4-0.1-9.5c0.1-0.5,0.3-0.9,0.5-1.3c0.8-0.8,1.8-1.2,2.7-1.5
			c13.3-2.7,20.4-13.3,25.6-26.2c0.8-1.8,0.3-4,1-5.9c2.4-5,3.7-10.4,4.4-16.1c0.2-1.6-0.1-3.3,0.9-4.7
			C125.7,46.8,125.9,46.3,126.1,45.8z"/>
		<path class="st99" d="M125.5,47.3c0.7,7.7-1.1,14.7-4.7,21.1c-1.2,0.1-2.3,0-3.5-0.4c-1.1-0.6-2.1-1.5-2.7-2.7
			c-0.4-4.5,0.6-8.4,3.5-11.7c2.4-0.4,1.2-3.3,2.6-4.5c1.6,2,0.9,4.2,0.4,6.4c-0.5,2.6-1.5,5.1-1.3,8.2c0,0.3,0.9-0.2,0.4-0.1
			c-0.2,0-0.3-0.1-0.2-0.4c1.6-5.5,2.3-11.3,4-16.8C124.6,46.7,125,47,125.5,47.3z"/>
		<path class="st100" d="M124.1,46.4c0.2,6.6-1.6,12.5-4.5,19.4c-2.2-6.6,2.3-11.4,1.1-16.7c0.8-2.7,3.3-4.8,2.5-8.2
			c0.2,0,0.4,0,0.6,0C124,42.8,124,44.6,124.1,46.4z"/>
		<path class="st101" d="M100.8,11c-1.7,0.3-2.8-1-3.1-3.2c-0.2-2.2,1.2-2.4,2.6-2.2c2.2,0.2,4.6,1.2,4.8,3.6
			C105.3,11,102.8,10.9,100.8,11z"/>
		<path class="st102" d="M130.3,154.4c-1.6,0.3-3.4-0.7-4.7,0.9c-4,0.6-7.8-0.5-11.7-1.2c-3.3-0.5-5.6-4.4-9.1-5.2
			c-1.1-0.9-2.1-1.8-3.2-2.7c0.2-0.8,0.6-1.3,1.2-1.5c0.8-0.2,1.6,0,2.3,0.5c5.6,4.6,11.8,4.9,18.3,3.9c6.6-1.2,12.2-4.7,17.4-9.4
			c1.2-1.1,2.7-2,3.5-3.7c3.5-5.6,8.6-9.6,11.6-15.6c0.7-1.4,1.6-2.7,1.9-4.3c1.3-1.7,1.6-4.2,3.4-5.4c0.1,0,0.2,0.1,0.3,0.2
			c0.2,0.2,0.2,0.5,0.1,0.8c1.2,1.8-0.4,3.7,0.1,5.5c-2,4.1-2.4,8.7-3.3,13.1c-0.2,0.6-0.6,1-1.1,1.4c-3.1,2.2-5.2,5.5-7.7,8.3
			c-5.6,6.2-12.3,9.9-19.2,13.5C130.4,153.9,130.4,154.1,130.3,154.4z"/>
		<path class="st103" d="M156.8,130.8c0.5-0.1,1.1-0.3,1.6-0.4c0,1-0.1,2-0.1,2.9c-1.5,1.2-0.2,4.2-2.6,4.9c0-0.9,0.1-1.9,0.1-2.8
			C154.6,133.5,156.1,132.3,156.8,130.8z"/>
		<path class="st104" d="M127.9,45.5c-1.7-9.1-1.7-9.1,6.5-9.1c0.5,1,1.2,1.8,2.2,1.7c11.2-0.5,19.1,7.4,26.7,14.7
			c4.1,4,8.8,8.6,10.4,15.3c3.9,12.5,3.5,24.7-1.7,36.6c-1.9,4.3-4,5-8.4,3c-0.8-2.1,0.1-3.9,0.8-5.7c2.1-2.5,2.2-5.8,2.8-9
			c1-6.4,1.2-12.7-0.6-19.1c-3.3-11.4-9-19.9-19.3-24.3c-5-2.1-9.9-3.2-15.1-2.9c-1.5,0.1-2.9,0-4.2-1.1L127.9,45.5z"/>
		<path class="st105" d="M164,107.3c3.5,2.2,5.6,0.5,7.1-3c5-11.4,5.9-23,2-35c-0.1-0.2,0.4-0.7,0.5-1.1c2.3,2.1,2.6,5.4,2.9,8.1
			c1,11.4,0.5,22.6-5.2,32.6c-1.9,0.6-4.1-0.7-5.9,0.9c-0.5,0.1-1,0.2-1.4,0.2c-0.9,0.4-1.6,0.4-1.6-0.9
			C162.3,108.1,162.7,107.1,164,107.3z"/>
		<path class="st0" d="M118.2,53.6c-0.9,4-2.8,7.6-3.2,11.8c-3.4,6.3-6.2,13.1-10.3,18.9c-3.3,4.2-7.3,7.3-12,9.2
			c-0.4,0.2-0.8,0.3-1.2,0.3c-3.2,0.2-6.3,0.3-9.5-0.1c-0.4-0.1-0.8-0.2-1.2-0.4c-6.1-3.1-10.7-7.8-12.6-15.3c-0.8-5.3-4-8.8-7-12.5
			c-1.8-4.6-2.7-9.5-3.7-14.4c0-0.8,0.1-1.5,0.5-2.1C66,53,74,56.5,80,64.3c5.1,6.6,13.6,6.3,18.8-0.1c5.3-6.5,11.9-10.4,18.9-13.7
			C118.7,51.3,118.3,52.5,118.2,53.6z"/>
		<path class="st106" d="M58.1,49.1c0.1,0.6,0.1,1.2,0.2,1.7C54,52,54,52,54.4,46.4c0-5.1,0-10.3,0-15.4c0.9-0.5,1.8-0.8,1.7,0.9
			c0.3,2.1-1,4.1-0.2,6.2C56.2,41.9,55.9,45.8,58.1,49.1z"/>
		<path class="st107" d="M56.1,31.9c-0.4-0.8-1-1-1.7-0.9c1.1-9.2,5.2-15.6,12.8-19.2c1.3-0.6,2.6-1.5,3.2,1
			C62,15.6,59.2,24,56.1,31.9z"/>
		<path class="st108" d="M54.4,46.4c0.5,2.4,0.7,5,3.8,4.4c1.1,4.9,3,9.6,2.9,14.7c-0.9,0-1.9-0.1-2.8-0.1
			c-2.3-4.1-2.3-9.2-4.5-13.5C53.1,50.2,53.5,48.1,54.4,46.4z"/>
		<path class="st109" d="M70.4,12.8c-0.8-1.3-2.1-0.7-3.2-1c0.3-0.9,0.6-1.7,0.9-2.6c0.8-0.3,1.5-0.7,2.3-1c2.9,2.2,5.6,2.5,8.1-0.8
			c2,0.3,2.3,2.4,2,3.7c-0.6,2.6-2.8,1.4-4.4,1.7C74.1,12.8,72.3,12.8,70.4,12.8z"/>
		<path class="st91" d="M355.9,124.4c1.4,0.2,1.8-2,3.3-1.7c0.1,2.9,2,4.1,3.9,5.4c0,0,0.1,0.1,0.1,0.1c0,0.1,0,0.4-0.1,0.4
			c-3.3,2.8-7.1,0.7-10.6,1.3c-4.1,0.7-7.3-0.7-8.9-5.4c-0.5-1.5-1.6-2.8-2.2-4.3c-1-2.8,0.2-4.8,2.2-6.5c2-1.8,3.1-0.3,4.3,1.2
			c1.7,2.1,3.5,4.1,4.6,6.7C353,123.1,353.9,124.9,355.9,124.4z"/>
		<path class="st110" d="M503.9,113.6c1.4,1.5-0.1,2.8-0.3,4.1c-0.2,1.5-1,2.8,0.3,4.1c1.6,5.4,5.4,8.9,8.8,12.7
			c-0.1,1.2,0.3,2.3,0.8,3.4c0.7,1.3,3.8,0.8,2.5,3c-1.7,3-0.8,7.7-5.6,10.2c3.3-11.9-4.5-16.6-9.7-22.9c0.1-2.2-2-3-2.4-4.9
			C497.7,119.7,500.5,114.9,503.9,113.6z"/>
		<path class="st111" d="M360.7,137.2c4.4,2.4,6.1,7.6,9,11.5c0.9,1.2-0.7,2.1-1.7,2.1c-4.2-0.1-8.9,1.6-11.5-4.2
			c-0.7-1.5-2-2.4-3.7-2c-0.8,0-1.6,0-2.5-0.1c-0.4-1.8,0.8-2.3,1.9-2.7c2.3-1,4.3-2.7,6.1-4.5C359.1,137.2,359.9,137.2,360.7,137.2
			z"/>
		<path class="st112" d="M358.3,137.2c-0.6,3.4-3.2,4.4-5.6,5.4c-1,0.4-2,0.7-2.4,1.9c-2.7-0.2-3.3,2.6-4.6,4.3
			c-1.1,1.4-1.9,2.9-3.9,2.2c-2.3-0.8-1.6-2.7-1.1-4.4c1.9-6.9,4.8-10.4,9.7-9.5C353,137.6,355.7,137.2,358.3,137.2z"/>
		<path class="st113" d="M542.1,128.3c-1.3,2.7,0.9,3.7,2,5.1c3.2,3.6,5.6,7.5,3.7,13c-1.7,2-3.1,2.7-4.1-0.8
			c-0.6-2.2-1.5-4.3-2.3-6.5c-0.7-2.9-2.3-5.1-4.2-6.8c-4.9-4.2-6.4-11-3.3-17.1c0.5-1,0.8-2.2,1.2-3.3c1.6,0.1,3.6-0.8,2.1,2.9
			c-1.3,3.2-1,6.9,0.2,10.4C538.2,127.5,540,128.3,542.1,128.3z"/>
		<path class="st114" d="M308.7,133.5c-3.6,3.4-3.7,8.1-3.9,12.8c-0.9,0.7-0.7,1.9-1,2.8c-1.4,4.3-3.8,4.6-6.9,0.9
			c3.1-1,3.3-4.5,3.7-6.9c1.5-9.2,5.1-17.9,5.9-27.3c0.1-1.4,1-2.7,1.5-4.1c1.3,0,2.6,0,4,0c-1.3,4-1,8.4-3,12.2
			c-0.6,1.1-0.6,2.9,0.6,4.1C309.3,129.9,309,131.7,308.7,133.5z"/>
		<path class="st115" d="M428.1,130.6c-2.4,4.6-5.5,8.9-4.2,14.8c-0.3,1-0.6,2-0.8,3c-0.2,1.3,0.3,3-1.4,3.2
			c-1.5,0.2-3.3,0.8-4.6-0.6c-1-1.1,0.2-2.4,0.5-3.7c1.1-5.9,2.7-11.8,4.3-17.6c1.6-6,3.1-12,4.4-18c3.3-0.4,5.9,0.2,5.6,5
			C432.4,122,431.8,126.9,428.1,130.6z"/>
		<path class="st116" d="M88.6,178.2c1.8,1,3.7,1.7,5.3,3c2.1,1.7,3.6,4.5,3.2,7.3c-0.5,3.8-2.7,6.8-6,8.3c-1.7,0.7-3.5,1.4-5.4,1.1
			c-1.6-0.9-3.4-1.6-4.9-2.8c-2.2-1.8-4-4.5-3.6-7.5c0.5-4.1,3.2-6.7,6.4-8.4C85.3,178.4,86.9,178.2,88.6,178.2z"/>
		<path class="st117" d="M208.8,118.8c0.2-0.2,0.5-0.4,0.5-0.6c2.1-6.3,2.7-6.6,7.4-2.9c5.4,7.1,3.7,14.9,1.6,22.6
			c-0.8,2.9-2.6,5.6-3.9,8.3c-2.6,2-4.8,4.6-8.2,5.1c-3.8,0.5-4.9-0.9-3.9-5c1.5-6.1,2.9-12.2,4.3-18.2
			C206.1,124.6,206.6,121.5,208.8,118.8z"/>
		<path class="st118" d="M208.8,118.8c-0.7,3.1-1.5,6.2-2.2,9.3c-2.5,2.3-2.6,5.9-3.3,8.9c-1,4.8-3.5,9.5-2,14.9
			c0.3,1.1-0.6,1.5-1.5,1.6c-1.1,0-2.1,0.1-3.2,0c-1.2-0.1-2.9,0.8-3.6-1c-0.7-1.7,0.2-3.2,1.3-4.4c1.9-1.5,1.6-4,2.2-6.1
			c1.4-5,2.4-10.2,3.7-15.3c0.3-1.3,0.1-2.3-0.4-3.4c-0.2-3.4,1.9-6.3,1.7-9.7c1.7-2.6,4.2-1.8,6.4-1.8c1.3,0,1.3,0.9,1.1,2.1
			C208.8,115.5,208.9,117.2,208.8,118.8z"/>
		<path class="st119" d="M164,107.3c-0.5,0.9-2.3,1.8,0,2.8c-0.8,0.6-1.5,1.2-2.3,1.7c-2,0.6-1.8,3.2-3.3,4.4
			c-0.4,0.7-0.9,0.6-1.4,0.1c2.6-5.2,5.1-10.4,7.7-15.6c0.2,0.2,0.3,0.4,0.3,0.7c0,0.3-0.1,0.4-0.1,0.4
			C164.5,103.6,163.8,105.3,164,107.3z"/>
		<path class="st120" d="M101.6,187.1c0,6.9-1.8,10.2-7.2,12.7c-2.2,1.4-4.6,0.9-7.1,0.6c3.2-1.1,6.4-2.2,9-4.8
			c2.8-2.9,3.2-6.6,2.9-10.8C100,185.6,100.8,186.3,101.6,187.1z"/>
		<path class="st121" d="M267.8,148.2c-1.1,1.1,1.3,2.6-0.1,3.4c-1.4,0.7-2.5-0.6-3.4-1.6c-1.8-1.7-2.9-4.2-5-5.6
			c1.1-3.9-0.4-7.8,0.5-11.9c1.3-5.8,5.4-9.7,6.7-15.2c4.5,0,4.5,0,2.4,4.4c-3.5,7.2-4.8,14.9-3.2,23.1
			C265.9,146.3,266.3,147.8,267.8,148.2z"/>
		<path class="st122" d="M428.1,130.6c2.4-4.2,2.4-9.2,3.9-13.8c1.8-4.7,2.2-4.9,6.5-2.4c0.4,1.5,0.7,3.1,1.1,4.6
			c0.3,4.5-1.7,7.8-4.4,10.8C432.8,130.5,430.5,131,428.1,130.6z"/>
		<path class="st123" d="M358.7,111.8c-2.3,0.1-4.8,0-5-3.1c-0.1-2.6,2.3-4.1,4.2-3.8c2.1,0.3,5.2,1.1,5.4,4.1
			C363.6,112.5,360.7,111.7,358.7,111.8z"/>
		<path class="st124" d="M92.1,92.7c0.2-0.2,0.3-0.3,0.6-0.1c5.3-0.8,8.9-4.6,12-9.1c2.6-2.4,3.7-5.7,5.3-8.9
			c1.5-3.1,2.5-7.4,7.1-6.2c0.4,0.2,0.6,0.5,0.8,0.9c-2.4,9.1-6.1,17.2-13.3,22.8c-3.4,2.7-6.9,5.1-10.8,6.6
			c-0.3,0.7-0.2,1.4-0.2,2.1c-0.5,1.1-1.5,0.8-2.2,1.1c-0.6,0-1.2-0.2-1.7-0.6c-1.2,6.1-0.6,12.2,0.6,18.2c0,0.1-0.1,0.3-0.1,0.4
			c-0.1,0.7,0.2-0.1,0.2,0.1c0.1-0.1,0.2-0.2,0.3-0.3c0.8,0,1.3,0.6,1.7,1.3c1.7,5.9,3.3,11.7,6.7,16.8c0.3,3.1,3.7,4.3,3.4,7.7
			c-0.3,0.3-0.5,0.6-0.8,0.9c-5.9-4.8-9.9-11.1-12.9-18.6c-2.9-7.2-2.3-14.9-3.9-22.3c0.9-4.8-1.2-8-5.1-9.2c-3-1-5.9-3-8.2-5.5
			c-1.6-1.6-3-3.4-5-4.4c-2-5-4.1-10-7.9-13.7c-0.6-1.1-1.7-2.5,0-3.3c1-0.5,2.9-0.8,3.3,0.4c1.2,3.4,4.5,4.9,5.4,8.4
			c2.3,2.8,3.6,6.5,6,9.3c2.2,2.5,4.6,4.4,7.7,5l-0.1,0C84.6,94.4,88.3,94,92.1,92.7z"/>
		<path class="st125" d="M156.8,130.8c-0.3,1.5-0.6,3.1-0.9,4.6c-6.6,6-12.5,12.9-20.5,16.7c-1.6,0.8-3.1,1.6-4.9,1.5
			c-0.1,0-0.3,0-0.4-0.1c-0.3-0.1-0.8-0.5-0.2-0.8c3.9-2,7.9-3.9,11.6-6.5c4.7-3.4,8.7-7.8,12.4-12.4
			C154.7,132.7,155.8,131.8,156.8,130.8z"/>
		<path class="st126" d="M78.5,7.4c0.1,2.2-0.3,4.1-2.7,3.5c-1.9-0.4-5.1,1.9-5.4-2.7C73.2,4.7,76,4.4,78.5,7.4z"/>
		<path class="st127" d="M363.1,128.1c-4.4-0.3-5.1-1.3-3.9-5.4c2.7-1,4.8-3,7.2-4.5c3-2,4.3-1.3,4.9,2.7c-0.6,2.8-3.5,2.7-4.8,4.6
			C365.3,126.3,364.2,127.2,363.1,128.1z"/>
		<path class="st128" d="M81,92.5c-2.8,0.8-4.9-0.4-6.6-2.8c-2.7-3.6-6.2-6.5-7.1-11.6c0.3,0,0.6-0.1,0.9-0.1
			C71.4,84,75.1,89.5,81,92.5z"/>
		<path class="st77" d="M128,45.6c4,0,8.1-0.6,11.9,0c5.1,0.9,9.9,3.6,14.4,6.6c6.3,4.2,10.2,11.2,12.5,18.4
			c2.1,6.4,3.4,13.9,1.2,21.2c-0.2,0.6-0.1,1.2-0.1,1.8c-0.5,0.5-1,0.6-1.5,0c1.3-7.9,1.2-15.7-1.7-23.1
			c-4.2-10.7-10.6-18.5-21.4-20.9c-4.2-1-8.4-1.6-12.6-1.3C128.8,48.4,127.9,47.8,128,45.6z"/>
		<path class="st129" d="M93.5,100.8c-1-0.5-1.5-1.3-1.5-2.5c13.2-2,19.7-12.7,25-25c0.4-0.9,0.6-2,1.1-2.9c0.9-1.4,1.9-2.4,2.2,0.4
			c0.1,1.2,0.3,2.6-0.3,3.8c-4.7,10.7-10.1,20.6-20.7,24.9C97.4,100.2,95.6,100.9,93.5,100.8z"/>
		<path class="st66" d="M102.4,145.3c-1.3-2.5-3.9-4-4-7.3c0.9-0.5,1.2,0.6,1.8,0.9c6.1,8.2,14.1,10.2,23,9.5c0.6,0.2,1,0.6,0.8,1.4
			c-6.4,2.2-12.5,1.3-18.2-2.6C104.7,146.5,104,145,102.4,145.3z"/>
		<path class="st130" d="M124,149.8c-0.3-0.5-0.5-0.9-0.8-1.4c7.6-2.1,13.8-7.1,19.9-12.2c0.6-0.5,1.1-0.6,1.7,0
			c0,1.3-0.7,2.3-1.6,3c-5.8,4-10.6,10.2-18.1,10.1C124.7,149.3,124.4,149.7,124,149.8z"/>
		<path class="st131" d="M144.8,136.3c-0.6,0-1.1,0-1.7,0c4.8-6.5,10-12.6,13.9-19.9c0.5,0,0.9-0.1,1.4-0.1
			c-1.4,6.7-5.8,11.1-9.9,15.6C147.2,133.3,146.1,134.9,144.8,136.3z"/>
		<path class="st132" d="M100.2,138.9c-0.6-0.3-1.2-0.6-1.8-0.9c-3.9-5-5.3-11.1-6.6-17.3c-0.2-0.5,0-0.8,0.3-1
			C94.8,126.1,96.6,133,100.2,138.9z"/>
		<path class="st133" d="M92.2,119.7c-0.1,0.3-0.2,0.7-0.3,1c-0.4-0.3-0.9-0.6-1.3-0.8c-2.4-6.2-2.3-12.5-0.8-18.9
			c0.7,0,1.2,0.2,1.6,0.9c0,0,0-0.1,0-0.1c-0.9,3.6-0.8,7.2,0,10.8C92.3,114.8,92.1,117.3,92.2,119.7z"/>
		<path class="st134" d="M166.4,93.6c0.5,0,1,0,1.5,0c-0.8,2.8,0.2,6.5-3.1,8.2c-0.1-0.4-0.1-0.7-0.2-1.1
			C165.2,98.3,165.3,95.8,166.4,93.6z"/>
		<path class="st135" d="M120.1,74.5c0-1.3,0.2-2.7-0.1-3.9c-0.5-1.8-0.9,0.2-1.4,0.2c-0.8-0.2-0.5-1.2-1-1.6l0-0.1
			c-0.4-0.6-0.4-1.3,0-1.9c1.2,0.2,2.5-0.4,3.3,1.2C120.6,70.5,121.5,72.7,120.1,74.5z"/>
		<path class="st124" d="M91.3,112.6c-1.3-3.6-1.4-7.2,0-10.8C91.3,105.4,91.3,109,91.3,112.6z"/>
		<path class="st136" d="M117.5,67.2c0,0.6,0,1.3,0,1.9c-4.2-0.6-5.7,2.7-7.2,6.2c-1.4,3.1-1.7,7.2-5.4,8.4
			c-0.2,0.4-0.5,0.4-0.6-0.1c2.8-5.1,6-10.1,8.1-15.7c0.5-1.3,1.6-1.9,2.6-2.6C116.2,65.3,116.9,66.3,117.5,67.2z"/>
		<path class="st128" d="M104.3,83.6c0.2,0,0.4,0,0.6,0.1c-3,4.9-6,9.9-12.3,8.9C97,90.4,100.9,87.5,104.3,83.6z"/>
		<path class="st128" d="M92.1,92.7c-2.4,2.7-8.8,2.6-11.1-0.3C84.6,92.9,88.3,93.1,92.1,92.7z"/>
		<path class="st137" d="M87.2,195.1c-4.6,0-7.1-2.4-7.2-6.9c-0.1-4.7,2.6-7.2,7.8-7.2c4.1,0,6.8,2.7,6.8,6.9
			C94.7,192.4,91.9,195.1,87.2,195.1z"/>
		<path class="st138" d="M117.5,69.2c0.7,0.2,0.8,0.9,1,1.6c-3.7,11.7-9.5,21.4-19.9,26.7c-2.2,1.1-4.5,0.5-6.7,0.8
			c4.4-1.9,8.5-4.1,12.4-7.2c2.7-2.1,5.1-4.5,6.6-7.6C113.2,78.8,116.1,74.4,117.5,69.2z"/>
		<path class="st139" d="M89.7,100.9c-0.3,6.3-0.3,12.7,0.8,18.9c0,0.1,0,0.3-0.1,0.4c-0.1,0.2-0.3,0.4-0.5,0.6
			c-2.9-6.8-1.8-14-1.9-21.1c0-0.8,0.4-1.5,1.3-1.1C90.4,99.1,89.8,100.1,89.7,100.9z"/>
		<path class="st140" d="M87.6,183.4c1.3,0.3,3-0.6,4,0.8c1,1.5,2.5,3.1,1.8,5.2c-0.6,1.9-2.2,2.9-4,3.1c-1.2,0.1-2.4,0.1-3.6,0.1
			c-2.7,0-4.2-1.6-4.2-4.7c0-3.2,1.5-4.6,4.3-4.5C86.4,183.5,87,183.4,87.6,183.4z"/>
	</g>
</g>
</svg>
